# Blender 4.4.3
# www.blender.org
mtllib glass_cube.mtl
o Box
v -2.500000 0.000000 2.500000
v -2.500000 5.000000 2.500000
v -2.500000 -0.000000 -2.500000
v -0.750000 5.000000 -0.750000
v 2.500000 0.000000 2.500000
v 2.500000 5.000000 2.500000
v 2.500000 -0.000000 -2.500000
v 0.750000 5.000000 -0.750000
v -2.500000 5.000000 -2.500000
v 2.500000 5.000000 -2.500000
v -0.750000 5.000000 0.750000
v 0.750000 5.000000 0.750000
vn -0.0000 -0.0000 1.0000
vn -0.0000 1.0000 -0.0000
vn -0.0000 -1.0000 -0.0000
vn 1.0000 -0.0000 -0.0000
vn -1.0000 -0.0000 -0.0000
vt 0.375000 0.250000
vt 0.375000 0.500000
vt 0.625000 0.500000
vt 0.625000 0.250000
vt 0.125000 0.500000
vt 0.125000 0.750000
vt 0.375000 0.750000
vt 0.712500 0.587500
vt 0.787500 0.587500
vt 0.875000 0.500000
vt 0.712500 0.662500
vt 0.625000 0.750000
vt 0.787500 0.662500
vt 0.875000 0.750000
vt 0.375000 0.000000
vt 0.625000 0.000000
s 1
usemtl White
f 3/1/1 7/2/1 10/3/1 9/4/1
f 3/5/2 1/6/2 5/7/2 7/2/2
f 8/8/3 4/9/3 9/10/3 10/3/3
f 12/11/3 8/8/3 10/3/3 6/12/3
f 11/13/3 12/11/3 6/12/3 2/14/3
f 4/9/3 11/13/3 2/14/3 9/10/3
usemtl Green
f 1/15/4 3/1/4 9/4/4 2/16/4
usemtl Red
f 7/2/5 5/7/5 6/12/5 10/3/5
usemtl Light
f 8/8/3 12/11/3 11/13/3 4/9/3
o Cube
v 0.000000 0.001000 1.046518
v 0.007071 0.011000 1.053589
v -0.007071 0.011000 1.053589
v 0.001106 0.001123 1.047624
v 0.002185 0.001489 1.048703
v 0.003210 0.002090 1.049728
v 0.004156 0.002910 1.050674
v 0.005000 0.003929 1.051518
v -0.001106 0.001123 1.047624
v 0.000011 0.001261 1.048787
v 0.001112 0.001656 1.049902
v 0.002126 0.002271 1.050910
v 0.003027 0.003067 1.051800
v 0.003810 0.004015 1.052576
v -0.002185 0.001489 1.048703
v -0.001091 0.001655 1.049907
v 0.000013 0.002068 1.051015
v 0.001018 0.002669 1.051955
v 0.001885 0.003407 1.052747
v 0.002609 0.004261 1.053430
v -0.003210 0.002090 1.049728
v -0.002117 0.002274 1.050920
v -0.001006 0.002673 1.051964
v 0.000004 0.003216 1.052796
v 0.000851 0.003857 1.053465
v 0.001525 0.004597 1.054046
v -0.004156 0.002910 1.050674
v -0.003027 0.003074 1.051811
v -0.001882 0.003414 1.052756
v -0.000849 0.003859 1.053467
v 0.000000 0.004364 1.053999
v 0.000631 0.004944 1.054451
v 0.000000 0.005227 1.054683
v 0.005878 0.011000 1.054608
v 0.004540 0.011000 1.055428
v 0.003090 0.011000 1.056029
v 0.001564 0.011000 1.056395
v 0.000000 0.011000 1.056518
v 0.006984 0.009436 1.053502
v 0.005746 0.009403 1.054545
v 0.004359 0.009394 1.055374
v 0.002913 0.009397 1.055949
v 0.001455 0.009405 1.056282
v 0.000006 0.009411 1.056391
v 0.006725 0.007910 1.053243
v 0.005459 0.007832 1.054275
v 0.004061 0.007830 1.055089
v 0.002663 0.007875 1.055637
v 0.001312 0.007928 1.055944
v 0.000004 0.007957 1.056044
v 0.006300 0.006460 1.052818
v 0.005027 0.006390 1.053831
v 0.003668 0.006438 1.054626
v 0.002363 0.006563 1.055163
v 0.001152 0.006690 1.055468
v 0.000001 0.006756 1.055573
v 0.005721 0.005122 1.052239
v 0.004472 0.005117 1.053256
v 0.003186 0.005258 1.054060
v 0.001999 0.005486 1.054617
v 0.000952 0.005710 1.054951
v 0.000000 0.005837 1.055082
v -0.006984 0.009436 1.053502
v -0.006725 0.007910 1.053243
v -0.006300 0.006460 1.052818
v -0.005721 0.005122 1.052239
v -0.005000 0.003929 1.051518
v -0.005878 0.011000 1.054608
v -0.005757 0.009388 1.054534
v -0.005471 0.007820 1.054261
v -0.005039 0.006391 1.053823
v -0.004482 0.005125 1.053256
v -0.003815 0.004023 1.052581
v -0.004540 0.011000 1.055428
v -0.004368 0.009375 1.055366
v -0.004074 0.007812 1.055076
v -0.003681 0.006435 1.054618
v -0.003197 0.005263 1.054059
v -0.002613 0.004267 1.053435
v -0.003090 0.011000 1.056029
v -0.002911 0.009384 1.055948
v -0.002662 0.007860 1.055632
v -0.002367 0.006558 1.055159
v -0.002003 0.005486 1.054617
v -0.001527 0.004598 1.054047
v -0.001564 0.011000 1.056395
v -0.001445 0.009398 1.056283
v -0.001304 0.007920 1.055942
v -0.001150 0.006687 1.055466
v -0.000952 0.005710 1.054951
v -0.000631 0.004945 1.054451
v 0.007071 1.491000 1.053589
v 0.000000 1.501000 1.046518
v -0.007071 1.491000 1.053589
v 0.006984 1.492565 1.053502
v 0.006725 1.494090 1.053243
v 0.006300 1.495540 1.052818
v 0.005721 1.496878 1.052239
v 0.005000 1.498071 1.051518
v 0.005878 1.491000 1.054608
v 0.005757 1.492613 1.054534
v 0.005471 1.494180 1.054261
v 0.005039 1.495609 1.053823
v 0.004482 1.496875 1.053255
v 0.003815 1.497977 1.052581
v 0.004540 1.491000 1.055428
v 0.004368 1.492625 1.055366
v 0.004074 1.494189 1.055076
v 0.003681 1.495565 1.054618
v 0.003197 1.496737 1.054059
v 0.002613 1.497733 1.053435
v 0.003090 1.491000 1.056028
v 0.002911 1.492617 1.055947
v 0.002662 1.494140 1.055631
v 0.002367 1.495442 1.055159
v 0.002003 1.496514 1.054616
v 0.001527 1.497402 1.054047
v 0.001564 1.491000 1.056395
v 0.001445 1.492602 1.056282
v 0.001304 1.494080 1.055942
v 0.001150 1.495314 1.055466
v 0.000952 1.496290 1.054951
v 0.000631 1.497056 1.054451
v 0.000000 1.496774 1.054683
v -0.001106 1.500877 1.047624
v -0.002185 1.500511 1.048703
v -0.003210 1.499910 1.049728
v -0.004156 1.499091 1.050674
v -0.005000 1.498071 1.051518
v 0.001106 1.500877 1.047624
v -0.000011 1.500739 1.048787
v -0.001112 1.500344 1.049902
v -0.002126 1.499729 1.050910
v -0.003027 1.498934 1.051800
v -0.003810 1.497985 1.052576
v 0.002185 1.500511 1.048703
v 0.001091 1.500345 1.049907
v -0.000013 1.499932 1.051014
v -0.001018 1.499331 1.051955
v -0.001885 1.498593 1.052747
v -0.002609 1.497739 1.053430
v 0.003210 1.499910 1.049728
v 0.002117 1.499726 1.050920
v 0.001006 1.499327 1.051964
v -0.000004 1.498784 1.052796
v -0.000851 1.498143 1.053465
v -0.001525 1.497404 1.054046
v 0.004156 1.499091 1.050674
v 0.003027 1.498927 1.051811
v 0.001882 1.498586 1.052756
v 0.000849 1.498141 1.053467
v 0.000000 1.497636 1.053999
v -0.000631 1.497056 1.054451
v -0.005878 1.491000 1.054608
v -0.004540 1.491000 1.055428
v -0.003090 1.491000 1.056028
v -0.001564 1.491000 1.056395
v 0.000000 1.491000 1.056518
v -0.006984 1.492565 1.053502
v -0.005746 1.492597 1.054545
v -0.004359 1.492607 1.055373
v -0.002913 1.492603 1.055949
v -0.001455 1.492595 1.056282
v -0.000006 1.492590 1.056391
v -0.006725 1.494090 1.053243
v -0.005459 1.494168 1.054275
v -0.004061 1.494171 1.055088
v -0.002663 1.494125 1.055636
v -0.001312 1.494072 1.055944
v -0.000004 1.494043 1.056044
v -0.006300 1.495540 1.052818
v -0.005027 1.495610 1.053831
v -0.003668 1.495562 1.054626
v -0.002363 1.495437 1.055163
v -0.001152 1.495311 1.055467
v -0.000001 1.495245 1.055572
v -0.005721 1.496878 1.052239
v -0.004472 1.496883 1.053255
v -0.003186 1.496742 1.054060
v -0.001999 1.496515 1.054617
v -0.000952 1.496290 1.054951
v 0.000000 1.496164 1.055082
v -1.046518 0.001000 -0.000000
v -1.053589 0.011000 0.007071
v -1.053589 0.011000 -0.007071
v -1.047624 0.001123 0.001106
v -1.048703 0.001489 0.002185
v -1.049728 0.002090 0.003210
v -1.050674 0.002910 0.004156
v -1.051518 0.003929 0.005000
v -1.047624 0.001123 -0.001106
v -1.048787 0.001261 0.000011
v -1.049902 0.001656 0.001112
v -1.050910 0.002271 0.002126
v -1.051800 0.003067 0.003027
v -1.052576 0.004015 0.003810
v -1.048703 0.001489 -0.002185
v -1.049907 0.001655 -0.001091
v -1.051015 0.002068 0.000013
v -1.051955 0.002669 0.001018
v -1.052747 0.003407 0.001885
v -1.053430 0.004261 0.002609
v -1.049728 0.002090 -0.003210
v -1.050920 0.002274 -0.002117
v -1.051964 0.002673 -0.001006
v -1.052796 0.003216 0.000004
v -1.053465 0.003857 0.000851
v -1.054046 0.004597 0.001525
v -1.050674 0.002910 -0.004156
v -1.051811 0.003074 -0.003027
v -1.052756 0.003414 -0.001882
v -1.053467 0.003859 -0.000849
v -1.053999 0.004364 -0.000000
v -1.054451 0.004944 0.000631
v -1.054683 0.005226 -0.000000
v -1.054608 0.011000 0.005878
v -1.055428 0.011000 0.004540
v -1.056029 0.011000 0.003090
v -1.056395 0.011000 0.001564
v -1.056518 0.011000 -0.000000
v -1.053502 0.009436 0.006984
v -1.054545 0.009403 0.005746
v -1.055374 0.009394 0.004359
v -1.055949 0.009397 0.002913
v -1.056282 0.009405 0.001455
v -1.056391 0.009410 0.000006
v -1.053243 0.007910 0.006725
v -1.054275 0.007832 0.005459
v -1.055089 0.007829 0.004061
v -1.055637 0.007875 0.002663
v -1.055944 0.007928 0.001312
v -1.056044 0.007957 0.000004
v -1.052818 0.006460 0.006300
v -1.053831 0.006390 0.005027
v -1.054626 0.006438 0.003668
v -1.055163 0.006563 0.002363
v -1.055468 0.006690 0.001152
v -1.055573 0.006756 0.000001
v -1.052239 0.005122 0.005721
v -1.053256 0.005117 0.004472
v -1.054060 0.005258 0.003186
v -1.054617 0.005486 0.001999
v -1.054951 0.005710 0.000952
v -1.055082 0.005837 -0.000000
v -1.053502 0.009436 -0.006984
v -1.053243 0.007910 -0.006725
v -1.052818 0.006460 -0.006300
v -1.052239 0.005122 -0.005721
v -1.051518 0.003929 -0.005000
v -1.054608 0.011000 -0.005878
v -1.054534 0.009387 -0.005757
v -1.054261 0.007820 -0.005471
v -1.053823 0.006391 -0.005039
v -1.053256 0.005125 -0.004482
v -1.052581 0.004023 -0.003815
v -1.055428 0.011000 -0.004540
v -1.055366 0.009375 -0.004368
v -1.055076 0.007812 -0.004074
v -1.054618 0.006435 -0.003681
v -1.054059 0.005263 -0.003197
v -1.053435 0.004267 -0.002613
v -1.056029 0.011000 -0.003090
v -1.055948 0.009384 -0.002911
v -1.055632 0.007860 -0.002662
v -1.055159 0.006558 -0.002367
v -1.054617 0.005486 -0.002003
v -1.054047 0.004598 -0.001527
v -1.056395 0.011000 -0.001564
v -1.056283 0.009398 -0.001445
v -1.055942 0.007920 -0.001304
v -1.055466 0.006687 -0.001150
v -1.054951 0.005710 -0.000952
v -1.054451 0.004945 -0.000631
v -1.046518 1.501000 -0.000000
v -1.053589 1.491000 -0.007071
v -1.053589 1.491000 0.007071
v -1.047624 1.500877 -0.001106
v -1.048703 1.500511 -0.002185
v -1.049728 1.499910 -0.003210
v -1.050674 1.499090 -0.004156
v -1.051518 1.498071 -0.005000
v -1.047624 1.500877 0.001106
v -1.048787 1.500739 -0.000011
v -1.049902 1.500344 -0.001113
v -1.050910 1.499729 -0.002126
v -1.051800 1.498934 -0.003027
v -1.052576 1.497985 -0.003810
v -1.048703 1.500511 0.002185
v -1.049907 1.500345 0.001091
v -1.051015 1.499932 -0.000013
v -1.051955 1.499331 -0.001019
v -1.052747 1.498593 -0.001885
v -1.053430 1.497739 -0.002609
v -1.049728 1.499910 0.003210
v -1.050920 1.499726 0.002116
v -1.051964 1.499327 0.001005
v -1.052796 1.498784 -0.000004
v -1.053465 1.498143 -0.000851
v -1.054046 1.497404 -0.001525
v -1.050674 1.499090 0.004156
v -1.051811 1.498926 0.003027
v -1.052756 1.498586 0.001882
v -1.053467 1.498141 0.000849
v -1.053999 1.497636 -0.000000
v -1.054451 1.497056 -0.000631
v -1.054683 1.496774 -0.000000
v -1.054608 1.491000 -0.005878
v -1.055428 1.491000 -0.004540
v -1.056029 1.491000 -0.003090
v -1.056395 1.491000 -0.001565
v -1.056518 1.491000 -0.000000
v -1.053502 1.492565 -0.006984
v -1.054545 1.492597 -0.005746
v -1.055374 1.492607 -0.004359
v -1.055949 1.492603 -0.002913
v -1.056282 1.492595 -0.001456
v -1.056391 1.492590 -0.000006
v -1.053243 1.494090 -0.006725
v -1.054275 1.494168 -0.005459
v -1.055089 1.494171 -0.004061
v -1.055637 1.494125 -0.002663
v -1.055944 1.494072 -0.001312
v -1.056044 1.494043 -0.000004
v -1.052818 1.495540 -0.006300
v -1.053831 1.495610 -0.005027
v -1.054626 1.495562 -0.003668
v -1.055163 1.495437 -0.002363
v -1.055468 1.495310 -0.001152
v -1.055573 1.495245 -0.000001
v -1.052239 1.496878 -0.005721
v -1.053256 1.496883 -0.004472
v -1.054060 1.496742 -0.003187
v -1.054617 1.496514 -0.001999
v -1.054951 1.496290 -0.000952
v -1.055082 1.496163 -0.000000
v -1.053502 1.492565 0.006984
v -1.053243 1.494090 0.006725
v -1.052818 1.495540 0.006300
v -1.052239 1.496878 0.005721
v -1.051518 1.498071 0.005000
v -1.054608 1.491000 0.005878
v -1.054534 1.492613 0.005757
v -1.054261 1.494180 0.005471
v -1.053823 1.495609 0.005039
v -1.053256 1.496875 0.004482
v -1.052581 1.497977 0.003815
v -1.055428 1.491000 0.004540
v -1.055366 1.492625 0.004368
v -1.055076 1.494189 0.004074
v -1.054618 1.495565 0.003681
v -1.054059 1.496737 0.003197
v -1.053435 1.497733 0.002613
v -1.056029 1.491000 0.003090
v -1.055948 1.492617 0.002910
v -1.055632 1.494140 0.002662
v -1.055159 1.495442 0.002367
v -1.054617 1.496514 0.002003
v -1.054047 1.497402 0.001526
v -1.056395 1.491000 0.001564
v -1.056283 1.492602 0.001445
v -1.055942 1.494080 0.001304
v -1.055466 1.495313 0.001150
v -1.054951 1.496290 0.000952
v -1.054451 1.497056 0.000631
v 1.046518 0.001000 -0.000000
v 1.053589 0.011000 -0.007071
v 1.053589 0.011000 0.007071
v 1.047624 0.001123 -0.001106
v 1.048703 0.001489 -0.002185
v 1.049728 0.002090 -0.003210
v 1.050674 0.002910 -0.004156
v 1.051518 0.003929 -0.005000
v 1.047624 0.001123 0.001106
v 1.048787 0.001261 -0.000011
v 1.049902 0.001656 -0.001112
v 1.050910 0.002271 -0.002126
v 1.051800 0.003067 -0.003027
v 1.052576 0.004015 -0.003810
v 1.048703 0.001489 0.002185
v 1.049907 0.001655 0.001091
v 1.051015 0.002068 -0.000013
v 1.051955 0.002669 -0.001018
v 1.052747 0.003407 -0.001885
v 1.053430 0.004261 -0.002609
v 1.049728 0.002090 0.003210
v 1.050920 0.002274 0.002117
v 1.051964 0.002673 0.001006
v 1.052796 0.003216 -0.000004
v 1.053465 0.003857 -0.000851
v 1.054046 0.004597 -0.001525
v 1.050674 0.002910 0.004156
v 1.051811 0.003074 0.003027
v 1.052756 0.003414 0.001882
v 1.053467 0.003859 0.000849
v 1.053999 0.004364 -0.000000
v 1.054451 0.004944 -0.000631
v 1.054683 0.005226 -0.000000
v 1.054608 0.011000 -0.005878
v 1.055428 0.011000 -0.004540
v 1.056029 0.011000 -0.003090
v 1.056395 0.011000 -0.001564
v 1.056518 0.011000 -0.000000
v 1.053502 0.009436 -0.006984
v 1.054545 0.009403 -0.005746
v 1.055374 0.009394 -0.004359
v 1.055949 0.009397 -0.002913
v 1.056282 0.009405 -0.001455
v 1.056391 0.009410 -0.000006
v 1.053243 0.007910 -0.006725
v 1.054275 0.007832 -0.005459
v 1.055089 0.007829 -0.004061
v 1.055637 0.007875 -0.002663
v 1.055944 0.007928 -0.001312
v 1.056044 0.007957 -0.000004
v 1.052818 0.006460 -0.006300
v 1.053831 0.006390 -0.005027
v 1.054626 0.006438 -0.003668
v 1.055163 0.006563 -0.002363
v 1.055468 0.006690 -0.001152
v 1.055573 0.006756 -0.000001
v 1.052239 0.005122 -0.005721
v 1.053256 0.005117 -0.004472
v 1.054060 0.005258 -0.003186
v 1.054617 0.005486 -0.001999
v 1.054951 0.005710 -0.000952
v 1.055082 0.005837 -0.000000
v 1.053502 0.009436 0.006984
v 1.053243 0.007910 0.006725
v 1.052818 0.006460 0.006300
v 1.052239 0.005122 0.005721
v 1.051518 0.003929 0.005000
v 1.054608 0.011000 0.005878
v 1.054534 0.009387 0.005757
v 1.054261 0.007820 0.005471
v 1.053823 0.006391 0.005039
v 1.053256 0.005125 0.004482
v 1.052581 0.004023 0.003815
v 1.055428 0.011000 0.004540
v 1.055366 0.009375 0.004368
v 1.055076 0.007812 0.004074
v 1.054618 0.006435 0.003681
v 1.054059 0.005263 0.003197
v 1.053435 0.004267 0.002613
v 1.056029 0.011000 0.003090
v 1.055948 0.009384 0.002911
v 1.055632 0.007860 0.002662
v 1.055159 0.006558 0.002367
v 1.054617 0.005486 0.002003
v 1.054047 0.004598 0.001527
v 1.056395 0.011000 0.001564
v 1.056283 0.009398 0.001445
v 1.055942 0.007920 0.001304
v 1.055466 0.006687 0.001150
v 1.054951 0.005710 0.000952
v 1.054451 0.004945 0.000631
v 1.046518 1.501000 -0.000000
v 1.053589 1.491000 0.007071
v 1.053589 1.491000 -0.007071
v 1.047624 1.500877 0.001106
v 1.048703 1.500511 0.002185
v 1.049728 1.499910 0.003210
v 1.050674 1.499090 0.004156
v 1.051518 1.498071 0.005000
v 1.047624 1.500877 -0.001106
v 1.048787 1.500739 0.000011
v 1.049902 1.500344 0.001112
v 1.050910 1.499729 0.002125
v 1.051800 1.498934 0.003026
v 1.052576 1.497985 0.003810
v 1.048703 1.500511 -0.002185
v 1.049907 1.500345 -0.001091
v 1.051015 1.499932 0.000013
v 1.051955 1.499331 0.001018
v 1.052747 1.498593 0.001885
v 1.053430 1.497739 0.002609
v 1.049728 1.499910 -0.003210
v 1.050920 1.499726 -0.002117
v 1.051964 1.499327 -0.001006
v 1.052796 1.498784 0.000003
v 1.053465 1.498143 0.000851
v 1.054046 1.497404 0.001525
v 1.050674 1.499090 -0.004156
v 1.051811 1.498926 -0.003027
v 1.052756 1.498586 -0.001883
v 1.053467 1.498141 -0.000849
v 1.053999 1.497636 -0.000000
v 1.054451 1.497056 0.000631
v 1.054683 1.496774 -0.000000
v 1.054608 1.491000 0.005878
v 1.055428 1.491000 0.004540
v 1.056029 1.491000 0.003090
v 1.056395 1.491000 0.001564
v 1.056518 1.491000 -0.000000
v 1.053502 1.492565 0.006984
v 1.054545 1.492597 0.005746
v 1.055374 1.492607 0.004359
v 1.055949 1.492603 0.002913
v 1.056282 1.492595 0.001455
v 1.056391 1.492590 0.000005
v 1.053243 1.494090 0.006725
v 1.054275 1.494168 0.005459
v 1.055089 1.494171 0.004061
v 1.055637 1.494125 0.002663
v 1.055944 1.494072 0.001312
v 1.056044 1.494043 0.000004
v 1.052818 1.495540 0.006300
v 1.053831 1.495610 0.005027
v 1.054626 1.495562 0.003668
v 1.055163 1.495437 0.002363
v 1.055468 1.495310 0.001152
v 1.055573 1.495245 0.000001
v 1.052239 1.496878 0.005721
v 1.053256 1.496883 0.004472
v 1.054060 1.496742 0.003186
v 1.054617 1.496514 0.001999
v 1.054951 1.496290 0.000952
v 1.055082 1.496163 -0.000000
v 1.053502 1.492565 -0.006984
v 1.053243 1.494090 -0.006725
v 1.052818 1.495540 -0.006300
v 1.052239 1.496878 -0.005721
v 1.051518 1.498071 -0.005000
v 1.054608 1.491000 -0.005878
v 1.054534 1.492613 -0.005757
v 1.054261 1.494180 -0.005471
v 1.053823 1.495609 -0.005039
v 1.053256 1.496875 -0.004482
v 1.052581 1.497977 -0.003815
v 1.055428 1.491000 -0.004540
v 1.055366 1.492625 -0.004368
v 1.055076 1.494189 -0.004074
v 1.054618 1.495565 -0.003681
v 1.054059 1.496737 -0.003197
v 1.053435 1.497733 -0.002613
v 1.056029 1.491000 -0.003090
v 1.055948 1.492617 -0.002911
v 1.055632 1.494140 -0.002662
v 1.055159 1.495442 -0.002367
v 1.054617 1.496514 -0.002003
v 1.054047 1.497402 -0.001527
v 1.056395 1.491000 -0.001565
v 1.056283 1.492602 -0.001445
v 1.055942 1.494080 -0.001304
v 1.055466 1.495313 -0.001150
v 1.054951 1.496290 -0.000952
v 1.054451 1.497056 -0.000631
v 0.000000 0.001000 -1.046518
v -0.007071 0.011000 -1.053589
v 0.007071 0.011000 -1.053589
v -0.001106 0.001123 -1.047624
v -0.002185 0.001489 -1.048703
v -0.003210 0.002090 -1.049728
v -0.004156 0.002910 -1.050674
v -0.005000 0.003929 -1.051518
v 0.001106 0.001123 -1.047624
v -0.000011 0.001261 -1.048787
v -0.001112 0.001656 -1.049902
v -0.002126 0.002271 -1.050910
v -0.003027 0.003066 -1.051800
v -0.003810 0.004015 -1.052576
v 0.002185 0.001489 -1.048703
v 0.001091 0.001655 -1.049907
v -0.000013 0.002068 -1.051015
v -0.001018 0.002669 -1.051955
v -0.001885 0.003407 -1.052747
v -0.002609 0.004261 -1.053430
v 0.003210 0.002090 -1.049728
v 0.002117 0.002274 -1.050920
v 0.001006 0.002673 -1.051964
v -0.000004 0.003216 -1.052796
v -0.000851 0.003857 -1.053465
v -0.001525 0.004597 -1.054046
v 0.004156 0.002910 -1.050674
v 0.003027 0.003074 -1.051811
v 0.001882 0.003414 -1.052756
v 0.000849 0.003859 -1.053467
v 0.000000 0.004364 -1.053999
v -0.000631 0.004944 -1.054451
v 0.000000 0.005226 -1.054683
v -0.005878 0.011000 -1.054608
v -0.004540 0.011000 -1.055428
v -0.003090 0.011000 -1.056029
v -0.001564 0.011000 -1.056395
v 0.000000 0.011000 -1.056518
v -0.006984 0.009436 -1.053502
v -0.005746 0.009403 -1.054545
v -0.004359 0.009393 -1.055374
v -0.002913 0.009397 -1.055949
v -0.001455 0.009405 -1.056282
v -0.000006 0.009410 -1.056391
v -0.006725 0.007910 -1.053243
v -0.005459 0.007832 -1.054275
v -0.004061 0.007829 -1.055089
v -0.002663 0.007875 -1.055637
v -0.001312 0.007928 -1.055944
v -0.000004 0.007957 -1.056044
v -0.006300 0.006460 -1.052818
v -0.005027 0.006390 -1.053831
v -0.003668 0.006438 -1.054626
v -0.002363 0.006563 -1.055163
v -0.001152 0.006690 -1.055468
v -0.000001 0.006755 -1.055573
v -0.005721 0.005122 -1.052239
v -0.004472 0.005117 -1.053256
v -0.003186 0.005258 -1.054060
v -0.001999 0.005486 -1.054617
v -0.000952 0.005710 -1.054951
v 0.000000 0.005837 -1.055082
v 0.006984 0.009436 -1.053502
v 0.006725 0.007910 -1.053243
v 0.006300 0.006460 -1.052818
v 0.005721 0.005122 -1.052239
v 0.005000 0.003929 -1.051518
v 0.005878 0.011000 -1.054608
v 0.005757 0.009387 -1.054534
v 0.005471 0.007820 -1.054261
v 0.005039 0.006391 -1.053823
v 0.004482 0.005125 -1.053256
v 0.003815 0.004023 -1.052581
v 0.004540 0.011000 -1.055428
v 0.004368 0.009375 -1.055366
v 0.004074 0.007811 -1.055076
v 0.003681 0.006435 -1.054618
v 0.003197 0.005263 -1.054059
v 0.002613 0.004267 -1.053435
v 0.003090 0.011000 -1.056029
v 0.002911 0.009384 -1.055948
v 0.002662 0.007860 -1.055632
v 0.002367 0.006558 -1.055159
v 0.002003 0.005486 -1.054617
v 0.001527 0.004598 -1.054047
v 0.001564 0.011000 -1.056395
v 0.001445 0.009398 -1.056283
v 0.001304 0.007920 -1.055942
v 0.001150 0.006687 -1.055466
v 0.000952 0.005710 -1.054951
v 0.000631 0.004944 -1.054451
v 0.000000 1.501000 -1.046518
v 0.007071 1.491000 -1.053589
v -0.007071 1.491000 -1.053589
v 0.001106 1.500877 -1.047624
v 0.002185 1.500511 -1.048703
v 0.003210 1.499910 -1.049729
v 0.004156 1.499090 -1.050674
v 0.005000 1.498071 -1.051518
v -0.001106 1.500877 -1.047624
v 0.000011 1.500739 -1.048788
v 0.001112 1.500344 -1.049902
v 0.002126 1.499729 -1.050911
v 0.003027 1.498934 -1.051800
v 0.003810 1.497985 -1.052576
v -0.002185 1.500511 -1.048703
v -0.001091 1.500345 -1.049907
v 0.000013 1.499932 -1.051015
v 0.001018 1.499331 -1.051955
v 0.001885 1.498593 -1.052747
v 0.002609 1.497739 -1.053431
v -0.003210 1.499910 -1.049729
v -0.002117 1.499726 -1.050921
v -0.001006 1.499327 -1.051964
v 0.000004 1.498784 -1.052796
v 0.000851 1.498143 -1.053465
v 0.001525 1.497403 -1.054046
v -0.004156 1.499090 -1.050674
v -0.003027 1.498926 -1.051811
v -0.001882 1.498586 -1.052756
v -0.000849 1.498141 -1.053467
v 0.000000 1.497636 -1.053999
v 0.000631 1.497056 -1.054451
v 0.000000 1.496774 -1.054683
v 0.005878 1.491000 -1.054608
v 0.004540 1.491000 -1.055428
v 0.003090 1.491000 -1.056029
v 0.001564 1.491000 -1.056395
v 0.000000 1.491000 -1.056518
v 0.006984 1.492564 -1.053502
v 0.005746 1.492597 -1.054545
v 0.004359 1.492607 -1.055374
v 0.002913 1.492603 -1.055949
v 0.001455 1.492595 -1.056282
v 0.000006 1.492590 -1.056391
v 0.006725 1.494090 -1.053243
v 0.005459 1.494168 -1.054275
v 0.004061 1.494171 -1.055089
v 0.002663 1.494125 -1.055637
v 0.001312 1.494072 -1.055944
v 0.000004 1.494043 -1.056044
v 0.006300 1.495540 -1.052819
v 0.005027 1.495610 -1.053831
v 0.003668 1.495562 -1.054626
v 0.002363 1.495437 -1.055163
v 0.001152 1.495310 -1.055468
v 0.000001 1.495245 -1.055573
v 0.005721 1.496878 -1.052239
v 0.004472 1.496883 -1.053256
v 0.003186 1.496742 -1.054060
v 0.001999 1.496514 -1.054617
v 0.000952 1.496290 -1.054951
v 0.000000 1.496163 -1.055082
v -0.006984 1.492564 -1.053502
v -0.006725 1.494090 -1.053243
v -0.006300 1.495540 -1.052819
v -0.005721 1.496878 -1.052239
v -0.005000 1.498071 -1.051518
v -0.005878 1.491000 -1.054608
v -0.005757 1.492613 -1.054534
v -0.005471 1.494180 -1.054261
v -0.005039 1.495609 -1.053824
v -0.004482 1.496875 -1.053256
v -0.003815 1.497977 -1.052581
v -0.004540 1.491000 -1.055428
v -0.004368 1.492625 -1.055366
v -0.004074 1.494189 -1.055076
v -0.003681 1.495565 -1.054618
v -0.003197 1.496737 -1.054059
v -0.002613 1.497733 -1.053435
v -0.003090 1.491000 -1.056029
v -0.002911 1.492616 -1.055948
v -0.002662 1.494140 -1.055632
v -0.002367 1.495442 -1.055159
v -0.002003 1.496514 -1.054617
v -0.001527 1.497402 -1.054047
v -0.001564 1.491000 -1.056395
v -0.001445 1.492602 -1.056283
v -0.001304 1.494080 -1.055942
v -0.001150 1.495313 -1.055467
v -0.000952 1.496290 -1.054951
v -0.000631 1.497056 -1.054451
vn 0.7071 -0.0000 0.7071
vn 0.7071 -0.0000 -0.7071
vn -0.0000 1.0000 -0.0000
vn -0.7071 -0.0000 0.7071
vn -0.7071 -0.0000 -0.7071
vn -0.0000 -0.9972 0.0751
vn 0.0823 -0.9867 0.1399
vn 0.0007 -0.9737 0.2280
vn -0.0822 -0.9867 0.1401
vn 0.1902 -0.9500 0.2478
vn 0.1101 -0.9350 0.3372
vn 0.2933 -0.8898 0.3496
vn 0.2126 -0.8742 0.4366
vn 0.3880 -0.8081 0.4432
vn 0.3050 -0.7949 0.5246
vn 0.4722 -0.7064 0.5272
vn 0.3848 -0.6991 0.6027
vn -0.1084 -0.9350 0.3376
vn -0.1898 -0.9500 0.2481
vn 0.0005 -0.8955 0.4451
vn 0.1029 -0.8368 0.5377
vn 0.1916 -0.7631 0.6172
vn 0.2669 -0.6754 0.6874
vn -0.2117 -0.8741 0.4372
vn -0.2929 -0.8898 0.3499
vn -0.1015 -0.8365 0.5385
vn 0.0004 -0.7839 0.6209
vn 0.0884 -0.7198 0.6886
vn 0.1595 -0.6427 0.7494
vn -0.3050 -0.7943 0.5254
vn -0.3878 -0.8081 0.4433
vn -0.1919 -0.7625 0.6179
vn -0.0882 -0.7195 0.6888
vn -0.0001 -0.6709 0.7416
vn 0.0695 -0.6083 0.7907
vn -0.3853 -0.6985 0.6031
vn -0.4723 -0.7064 0.5272
vn -0.2675 -0.6749 0.6877
vn -0.1594 -0.6426 0.7495
vn -0.0695 -0.6083 0.7907
vn -0.0002 -0.5773 0.8165
vn 0.6676 -0.0531 0.7426
vn 0.5866 -0.0407 0.8088
vn 0.5742 -0.1606 0.8028
vn 0.6688 -0.1572 0.7266
vn 0.4528 -0.0406 0.8907
vn 0.4375 -0.1605 0.8848
vn 0.3078 -0.0399 0.9506
vn 0.2934 -0.1581 0.9428
vn 0.1558 -0.0392 0.9870
vn 0.1475 -0.1555 0.9768
vn -0.0000 -0.0388 0.9992
vn 0.0005 -0.1540 0.9881
vn 0.5466 -0.3155 0.7757
vn 0.6427 -0.3097 0.7007
vn 0.4103 -0.3140 0.8562
vn 0.2714 -0.3075 0.9120
vn 0.1348 -0.3005 0.9442
vn 0.0003 -0.2973 0.9548
vn 0.5055 -0.4589 0.7307
vn 0.6009 -0.4543 0.6577
vn 0.3732 -0.4527 0.8098
vn 0.2437 -0.4390 0.8648
vn 0.1205 -0.4245 0.8974
vn -0.0000 -0.4172 0.9088
vn 0.4514 -0.5870 0.6721
vn 0.5437 -0.5876 0.5992
vn 0.3259 -0.5727 0.7522
vn 0.2086 -0.5495 0.8090
vn 0.1039 -0.5239 0.8454
vn -0.0001 -0.5099 0.8602
vn -0.6676 -0.0531 0.7427
vn -0.6689 -0.1572 0.7265
vn -0.5749 -0.1617 0.8021
vn -0.5865 -0.0409 0.8089
vn -0.6430 -0.3098 0.7004
vn -0.5476 -0.3164 0.7746
vn -0.6011 -0.4543 0.6575
vn -0.5064 -0.4590 0.7300
vn -0.5438 -0.5877 0.5991
vn -0.4521 -0.5865 0.6720
vn -0.4383 -0.1621 0.8841
vn -0.4528 -0.0411 0.8906
vn -0.4113 -0.3155 0.8552
vn -0.3743 -0.4529 0.8092
vn -0.3271 -0.5722 0.7521
vn -0.2935 -0.1593 0.9426
vn -0.3080 -0.0403 0.9505
vn -0.2714 -0.3089 0.9115
vn -0.2440 -0.4392 0.8646
vn -0.2092 -0.5494 0.8090
vn -0.1465 -0.1560 0.9768
vn -0.1558 -0.0393 0.9870
vn -0.1342 -0.3014 0.9440
vn -0.1204 -0.4246 0.8973
vn -0.1041 -0.5243 0.8451
vn 0.6676 0.0531 0.7427
vn 0.6689 0.1572 0.7265
vn 0.5749 0.1617 0.8021
vn 0.5865 0.0409 0.8089
vn 0.6430 0.3098 0.7004
vn 0.5476 0.3165 0.7746
vn 0.6011 0.4544 0.6575
vn 0.5064 0.4591 0.7299
vn 0.5437 0.5877 0.5992
vn 0.4522 0.5866 0.6719
vn 0.4721 0.7066 0.5271
vn 0.3852 0.6985 0.6031
vn 0.4383 0.1622 0.8841
vn 0.4527 0.0411 0.8907
vn 0.4111 0.3155 0.8553
vn 0.3742 0.4531 0.8091
vn 0.3271 0.5722 0.7521
vn 0.2675 0.6748 0.6878
vn 0.2934 0.1594 0.9426
vn 0.3079 0.0403 0.9506
vn 0.2713 0.3087 0.9116
vn 0.2441 0.4393 0.8646
vn 0.2091 0.5493 0.8091
vn 0.1596 0.6424 0.7495
vn 0.1468 0.1560 0.9768
vn 0.1559 0.0394 0.9870
vn 0.1341 0.3014 0.9440
vn 0.1205 0.4247 0.8973
vn 0.1040 0.5242 0.8452
vn 0.0698 0.6083 0.7906
vn -0.0003 0.1541 0.9881
vn -0.0000 0.0388 0.9992
vn -0.0003 0.2973 0.9548
vn -0.0002 0.4172 0.9088
vn -0.0000 0.5097 0.8603
vn -0.0000 0.5775 0.8164
vn -0.0000 0.9972 0.0752
vn -0.0823 0.9867 0.1400
vn -0.0007 0.9737 0.2280
vn 0.0822 0.9867 0.1402
vn -0.1904 0.9500 0.2475
vn -0.1103 0.9349 0.3374
vn -0.2932 0.8899 0.3495
vn -0.2127 0.8743 0.4363
vn -0.3880 0.8081 0.4431
vn -0.3049 0.7949 0.5246
vn -0.4722 0.7066 0.5270
vn -0.3849 0.6988 0.6029
vn 0.1083 0.9350 0.3377
vn 0.1898 0.9500 0.2481
vn -0.0009 0.8954 0.4452
vn -0.1027 0.8369 0.5376
vn -0.1920 0.7630 0.6172
vn -0.2671 0.6754 0.6874
vn 0.2118 0.8741 0.4371
vn 0.2928 0.8899 0.3498
vn 0.1016 0.8366 0.5384
vn -0.0004 0.7839 0.6208
vn -0.0883 0.7199 0.6884
vn -0.1594 0.6428 0.7493
vn 0.3048 0.7943 0.5255
vn 0.3878 0.8081 0.4434
vn 0.1918 0.7624 0.6180
vn 0.0881 0.7196 0.6888
vn 0.0001 0.6711 0.7414
vn -0.0695 0.6084 0.7906
vn -0.6676 0.0531 0.7427
vn -0.5866 0.0407 0.8089
vn -0.5741 0.1607 0.8029
vn -0.6688 0.1573 0.7266
vn -0.4527 0.0407 0.8907
vn -0.4373 0.1607 0.8848
vn -0.3079 0.0399 0.9506
vn -0.2936 0.1581 0.9427
vn -0.1559 0.0391 0.9870
vn -0.1474 0.1553 0.9768
vn -0.5465 0.3155 0.7758
vn -0.6427 0.3098 0.7007
vn -0.4102 0.3139 0.8563
vn -0.2716 0.3075 0.9120
vn -0.1350 0.3007 0.9441
vn -0.5054 0.4590 0.7307
vn -0.6008 0.4543 0.6577
vn -0.3732 0.4526 0.8099
vn -0.2437 0.4387 0.8649
vn -0.1206 0.4244 0.8974
vn -0.4514 0.5870 0.6720
vn -0.5436 0.5876 0.5993
vn -0.3262 0.5727 0.7521
vn -0.2086 0.5494 0.8091
vn -0.1038 0.5241 0.8453
vn -0.0751 -0.9972 -0.0000
vn -0.1399 -0.9867 0.0823
vn -0.2280 -0.9737 0.0007
vn -0.1401 -0.9867 -0.0822
vn -0.2478 -0.9500 0.1902
vn -0.3372 -0.9350 0.1101
vn -0.3496 -0.8898 0.2933
vn -0.4364 -0.8742 0.2129
vn -0.4432 -0.8081 0.3880
vn -0.5247 -0.7949 0.3045
vn -0.5269 -0.7068 0.4721
vn -0.6030 -0.6988 0.3849
vn -0.3376 -0.9350 -0.1084
vn -0.2481 -0.9500 -0.1899
vn -0.4450 -0.8955 0.0010
vn -0.5377 -0.8368 0.1028
vn -0.6172 -0.7630 0.1921
vn -0.6874 -0.6754 0.2669
vn -0.4372 -0.8741 -0.2117
vn -0.3499 -0.8898 -0.2929
vn -0.5384 -0.8365 -0.1018
vn -0.6209 -0.7839 0.0003
vn -0.6883 -0.7200 0.0884
vn -0.7493 -0.6427 0.1595
vn -0.5254 -0.7943 -0.3049
vn -0.4434 -0.8081 -0.3878
vn -0.6179 -0.7624 -0.1919
vn -0.6888 -0.7195 -0.0882
vn -0.7415 -0.6710 -0.0001
vn -0.7906 -0.6083 0.0696
vn -0.6031 -0.6985 -0.3852
vn -0.5270 -0.7067 -0.4720
vn -0.6877 -0.6749 -0.2675
vn -0.7495 -0.6426 -0.1594
vn -0.7906 -0.6083 -0.0696
vn -0.8164 -0.5774 -0.0002
vn -0.7427 -0.0531 0.6676
vn -0.8088 -0.0407 0.5866
vn -0.8029 -0.1610 0.5740
vn -0.7266 -0.1572 0.6688
vn -0.8907 -0.0406 0.4528
vn -0.8848 -0.1605 0.4374
vn -0.9506 -0.0399 0.3079
vn -0.9428 -0.1581 0.2934
vn -0.9870 -0.0392 0.1557
vn -0.9768 -0.1553 0.1473
vn -0.9992 -0.0388 0.0001
vn -0.9881 -0.1541 0.0005
vn -0.7759 -0.3154 0.5464
vn -0.7007 -0.3097 0.6427
vn -0.8562 -0.3140 0.4102
vn -0.9120 -0.3075 0.2713
vn -0.9442 -0.3005 0.1349
vn -0.9548 -0.2973 0.0003
vn -0.7307 -0.4589 0.5055
vn -0.6577 -0.4543 0.6008
vn -0.8098 -0.4527 0.3732
vn -0.8648 -0.4390 0.2436
vn -0.8974 -0.4244 0.1205
vn -0.9088 -0.4172 -0.0000
vn -0.6721 -0.5870 0.4514
vn -0.5993 -0.5876 0.5437
vn -0.7522 -0.5727 0.3259
vn -0.8090 -0.5495 0.2086
vn -0.8452 -0.5243 0.1038
vn -0.8603 -0.5098 -0.0001
vn -0.7427 -0.0531 -0.6676
vn -0.7265 -0.1572 -0.6689
vn -0.8021 -0.1618 -0.5749
vn -0.8089 -0.0409 -0.5865
vn -0.7004 -0.3098 -0.6430
vn -0.7746 -0.3165 -0.5475
vn -0.6575 -0.4543 -0.6011
vn -0.7300 -0.4590 -0.5064
vn -0.5991 -0.5877 -0.5438
vn -0.6720 -0.5865 -0.4521
vn -0.8841 -0.1621 -0.4382
vn -0.8906 -0.0411 -0.4529
vn -0.8552 -0.3155 -0.4113
vn -0.8092 -0.4529 -0.3743
vn -0.7521 -0.5722 -0.3271
vn -0.9426 -0.1593 -0.2935
vn -0.9505 -0.0402 -0.3080
vn -0.9115 -0.3089 -0.2714
vn -0.8646 -0.4393 -0.2440
vn -0.8091 -0.5492 -0.2089
vn -0.9768 -0.1560 -0.1465
vn -0.9870 -0.0392 -0.1557
vn -0.9440 -0.3015 -0.1342
vn -0.8973 -0.4246 -0.1204
vn -0.8452 -0.5242 -0.1037
vn -0.0751 0.9972 -0.0000
vn -0.1399 0.9867 -0.0823
vn -0.2280 0.9737 -0.0007
vn -0.1401 0.9867 0.0822
vn -0.2477 0.9500 -0.1902
vn -0.3372 0.9350 -0.1101
vn -0.3495 0.8898 -0.2933
vn -0.4363 0.8743 -0.2128
vn -0.4433 0.8081 -0.3878
vn -0.5247 0.7949 -0.3047
vn -0.5272 0.7065 -0.4722
vn -0.6027 0.6990 -0.3849
vn -0.3377 0.9350 0.1084
vn -0.2481 0.9500 0.1898
vn -0.4450 0.8955 -0.0010
vn -0.5377 0.8368 -0.1028
vn -0.6172 0.7630 -0.1920
vn -0.6874 0.6754 -0.2670
vn -0.4372 0.8740 0.2119
vn -0.3499 0.8898 0.2929
vn -0.5384 0.8365 0.1018
vn -0.6209 0.7839 -0.0003
vn -0.6885 0.7199 -0.0883
vn -0.7493 0.6427 -0.1594
vn -0.5254 0.7944 0.3049
vn -0.4433 0.8081 0.3878
vn -0.6179 0.7625 0.1919
vn -0.6888 0.7196 0.0882
vn -0.7414 0.6711 0.0001
vn -0.7907 0.6083 -0.0696
vn -0.6031 0.6985 0.3852
vn -0.5272 0.7065 0.4723
vn -0.6878 0.6749 0.2674
vn -0.7494 0.6426 0.1595
vn -0.7906 0.6084 0.0696
vn -0.8165 0.5773 -0.0000
vn -0.7427 0.0531 -0.6676
vn -0.8088 0.0406 -0.5866
vn -0.8029 0.1611 -0.5740
vn -0.7266 0.1573 -0.6688
vn -0.8907 0.0406 -0.4528
vn -0.8848 0.1606 -0.4374
vn -0.9506 0.0399 -0.3079
vn -0.9428 0.1581 -0.2935
vn -0.9870 0.0392 -0.1558
vn -0.9768 0.1554 -0.1473
vn -0.9992 0.0388 -0.0000
vn -0.9881 0.1541 -0.0005
vn -0.7759 0.3153 -0.5464
vn -0.7007 0.3097 -0.6427
vn -0.8562 0.3141 -0.4102
vn -0.9120 0.3076 -0.2713
vn -0.9442 0.3005 -0.1349
vn -0.9548 0.2972 -0.0003
vn -0.7307 0.4589 -0.5055
vn -0.6577 0.4543 -0.6008
vn -0.8098 0.4527 -0.3732
vn -0.8648 0.4390 -0.2436
vn -0.8974 0.4244 -0.1206
vn -0.9088 0.4172 -0.0000
vn -0.6720 0.5870 -0.4514
vn -0.5992 0.5876 -0.5437
vn -0.7522 0.5726 -0.3260
vn -0.8091 0.5494 -0.2086
vn -0.8453 0.5242 -0.1035
vn -0.8603 0.5099 0.0001
vn -0.7427 0.0531 0.6676
vn -0.7265 0.1572 0.6689
vn -0.8021 0.1617 0.5749
vn -0.8089 0.0409 0.5865
vn -0.7004 0.3098 0.6430
vn -0.7746 0.3165 0.5476
vn -0.6575 0.4543 0.6011
vn -0.7300 0.4590 0.5064
vn -0.5991 0.5877 0.5438
vn -0.6720 0.5866 0.4521
vn -0.8842 0.1621 0.4382
vn -0.8906 0.0411 0.4529
vn -0.8552 0.3155 0.4113
vn -0.8091 0.4530 0.3743
vn -0.7521 0.5722 0.3270
vn -0.9426 0.1593 0.2935
vn -0.9505 0.0403 0.3080
vn -0.9116 0.3089 0.2713
vn -0.8646 0.4393 0.2439
vn -0.8091 0.5492 0.2089
vn -0.9768 0.1560 0.1465
vn -0.9870 0.0395 0.1560
vn -0.9440 0.3014 0.1342
vn -0.8973 0.4246 0.1204
vn -0.8453 0.5242 0.1038
vn 0.0751 -0.9972 -0.0000
vn 0.1399 -0.9867 -0.0823
vn 0.2280 -0.9737 -0.0007
vn 0.1401 -0.9867 0.0822
vn 0.2478 -0.9500 -0.1902
vn 0.3372 -0.9350 -0.1101
vn 0.3496 -0.8898 -0.2933
vn 0.4364 -0.8742 -0.2129
vn 0.4432 -0.8081 -0.3880
vn 0.5247 -0.7949 -0.3045
vn 0.5269 -0.7068 -0.4721
vn 0.6030 -0.6988 -0.3849
vn 0.3376 -0.9350 0.1084
vn 0.2481 -0.9500 0.1899
vn 0.4450 -0.8955 -0.0010
vn 0.5377 -0.8368 -0.1028
vn 0.6172 -0.7630 -0.1921
vn 0.6874 -0.6754 -0.2669
vn 0.4372 -0.8741 0.2117
vn 0.3499 -0.8898 0.2929
vn 0.5384 -0.8365 0.1018
vn 0.6209 -0.7839 -0.0003
vn 0.6883 -0.7200 -0.0884
vn 0.7493 -0.6427 -0.1595
vn 0.5254 -0.7943 0.3049
vn 0.4434 -0.8081 0.3878
vn 0.6179 -0.7624 0.1919
vn 0.6888 -0.7195 0.0882
vn 0.7415 -0.6710 0.0001
vn 0.7906 -0.6083 -0.0696
vn 0.6031 -0.6985 0.3852
vn 0.5270 -0.7067 0.4720
vn 0.6877 -0.6749 0.2675
vn 0.7495 -0.6426 0.1594
vn 0.7906 -0.6083 0.0696
vn 0.8164 -0.5774 0.0002
vn 0.7427 -0.0531 -0.6676
vn 0.8088 -0.0407 -0.5866
vn 0.8029 -0.1610 -0.5740
vn 0.7266 -0.1572 -0.6688
vn 0.8907 -0.0406 -0.4528
vn 0.8848 -0.1605 -0.4374
vn 0.9506 -0.0399 -0.3079
vn 0.9428 -0.1581 -0.2934
vn 0.9870 -0.0392 -0.1558
vn 0.9768 -0.1553 -0.1473
vn 0.9992 -0.0388 -0.0000
vn 0.9881 -0.1541 -0.0005
vn 0.7759 -0.3154 -0.5464
vn 0.7007 -0.3097 -0.6427
vn 0.8562 -0.3140 -0.4102
vn 0.9120 -0.3075 -0.2713
vn 0.9442 -0.3005 -0.1349
vn 0.9548 -0.2973 -0.0003
vn 0.7307 -0.4589 -0.5055
vn 0.6577 -0.4543 -0.6008
vn 0.8098 -0.4527 -0.3732
vn 0.8648 -0.4390 -0.2436
vn 0.8974 -0.4244 -0.1205
vn 0.9088 -0.4172 -0.0000
vn 0.6721 -0.5870 -0.4514
vn 0.5993 -0.5876 -0.5437
vn 0.7522 -0.5727 -0.3259
vn 0.8090 -0.5495 -0.2086
vn 0.8452 -0.5243 -0.1038
vn 0.8603 -0.5098 0.0001
vn 0.7427 -0.0531 0.6676
vn 0.7265 -0.1572 0.6689
vn 0.8021 -0.1618 0.5749
vn 0.8089 -0.0409 0.5865
vn 0.7004 -0.3098 0.6430
vn 0.7746 -0.3165 0.5475
vn 0.6576 -0.4545 0.6008
vn 0.7300 -0.4590 0.5064
vn 0.5991 -0.5877 0.5438
vn 0.6720 -0.5865 0.4521
vn 0.8841 -0.1621 0.4382
vn 0.8906 -0.0411 0.4529
vn 0.8552 -0.3155 0.4113
vn 0.8092 -0.4529 0.3743
vn 0.7521 -0.5722 0.3271
vn 0.9426 -0.1593 0.2935
vn 0.9505 -0.0402 0.3080
vn 0.9115 -0.3089 0.2714
vn 0.8646 -0.4393 0.2440
vn 0.8091 -0.5492 0.2089
vn 0.9768 -0.1560 0.1465
vn 0.9870 -0.0395 0.1560
vn 0.9440 -0.3015 0.1342
vn 0.8973 -0.4246 0.1204
vn 0.8452 -0.5242 0.1037
vn 0.0751 0.9972 -0.0000
vn 0.1399 0.9867 0.0823
vn 0.2280 0.9737 0.0007
vn 0.1401 0.9867 -0.0822
vn 0.2478 0.9500 0.1902
vn 0.3372 0.9350 0.1100
vn 0.3496 0.8898 0.2932
vn 0.4364 0.8742 0.2128
vn 0.4431 0.8081 0.3880
vn 0.5245 0.7949 0.3049
vn 0.5269 0.7067 0.4722
vn 0.6027 0.6990 0.3848
vn 0.3376 0.9350 -0.1084
vn 0.2481 0.9500 -0.1898
vn 0.4452 0.8954 0.0008
vn 0.5377 0.8368 0.1028
vn 0.6172 0.7630 0.1920
vn 0.6874 0.6754 0.2670
vn 0.4372 0.8740 -0.2120
vn 0.3499 0.8898 -0.2929
vn 0.5384 0.8365 -0.1018
vn 0.6209 0.7839 0.0003
vn 0.6885 0.7199 0.0883
vn 0.7493 0.6427 0.1594
vn 0.5254 0.7943 -0.3050
vn 0.4434 0.8081 -0.3878
vn 0.6179 0.7624 -0.1920
vn 0.6888 0.7196 -0.0881
vn 0.7414 0.6711 -0.0001
vn 0.7907 0.6083 0.0696
vn 0.6031 0.6984 -0.3853
vn 0.5270 0.7067 -0.4720
vn 0.6878 0.6749 -0.2675
vn 0.7494 0.6426 -0.1595
vn 0.7908 0.6081 -0.0697
vn 0.8165 0.5773 -0.0000
vn 0.7427 0.0531 0.6676
vn 0.8088 0.0406 0.5866
vn 0.8029 0.1611 0.5740
vn 0.7266 0.1573 0.6688
vn 0.8907 0.0406 0.4528
vn 0.8848 0.1606 0.4374
vn 0.9506 0.0399 0.3078
vn 0.9428 0.1581 0.2934
vn 0.9870 0.0392 0.1557
vn 0.9768 0.1553 0.1472
vn 0.9992 0.0388 0.0001
vn 0.9881 0.1541 0.0004
vn 0.7759 0.3153 0.5464
vn 0.7007 0.3098 0.6427
vn 0.8562 0.3141 0.4102
vn 0.9120 0.3075 0.2713
vn 0.9442 0.3005 0.1349
vn 0.9548 0.2972 0.0003
vn 0.7307 0.4589 0.5055
vn 0.6577 0.4543 0.6008
vn 0.8098 0.4527 0.3732
vn 0.8648 0.4390 0.2436
vn 0.8974 0.4244 0.1206
vn 0.9088 0.4172 -0.0000
vn 0.6721 0.5870 0.4514
vn 0.5992 0.5876 0.5437
vn 0.7522 0.5726 0.3260
vn 0.8091 0.5494 0.2086
vn 0.8453 0.5242 0.1035
vn 0.8603 0.5099 -0.0001
vn 0.7427 0.0531 -0.6676
vn 0.7265 0.1572 -0.6689
vn 0.8021 0.1617 -0.5749
vn 0.8089 0.0409 -0.5865
vn 0.7004 0.3098 -0.6430
vn 0.7746 0.3165 -0.5476
vn 0.6575 0.4543 -0.6011
vn 0.7300 0.4590 -0.5064
vn 0.5991 0.5877 -0.5438
vn 0.6720 0.5866 -0.4521
vn 0.8841 0.1621 -0.4382
vn 0.8906 0.0411 -0.4529
vn 0.8551 0.3155 -0.4113
vn 0.8091 0.4530 -0.3743
vn 0.7521 0.5722 -0.3270
vn 0.9426 0.1593 -0.2935
vn 0.9505 0.0402 -0.3080
vn 0.9116 0.3090 -0.2713
vn 0.8646 0.4393 -0.2439
vn 0.8091 0.5492 -0.2089
vn 0.9768 0.1560 -0.1465
vn 0.9870 0.0395 -0.1560
vn 0.9440 0.3014 -0.1342
vn 0.8973 0.4246 -0.1204
vn 0.8453 0.5242 -0.1038
vn -0.0000 -0.9972 -0.0751
vn -0.0823 -0.9867 -0.1399
vn -0.0007 -0.9737 -0.2280
vn 0.0822 -0.9867 -0.1401
vn -0.1902 -0.9500 -0.2478
vn -0.1101 -0.9350 -0.3372
vn -0.2933 -0.8898 -0.3495
vn -0.2128 -0.8743 -0.4363
vn -0.3881 -0.8081 -0.4431
vn -0.3050 -0.7949 -0.5246
vn -0.4722 -0.7067 -0.5269
vn -0.3849 -0.6990 -0.6028
vn 0.1084 -0.9350 -0.3376
vn 0.1898 -0.9500 -0.2481
vn -0.0005 -0.8955 -0.4451
vn -0.1028 -0.8368 -0.5377
vn -0.1920 -0.7629 -0.6173
vn -0.2669 -0.6753 -0.6875
vn 0.2117 -0.8741 -0.4372
vn 0.2929 -0.8898 -0.3499
vn 0.1015 -0.8365 -0.5385
vn -0.0004 -0.7839 -0.6209
vn -0.0884 -0.7198 -0.6886
vn -0.1595 -0.6427 -0.7494
vn 0.3050 -0.7943 -0.5254
vn 0.3878 -0.8081 -0.4433
vn 0.1919 -0.7625 -0.6179
vn 0.0882 -0.7196 -0.6887
vn -0.0000 -0.6711 -0.7414
vn -0.0697 -0.6083 -0.7906
vn 0.3853 -0.6985 -0.6031
vn 0.4723 -0.7064 -0.5272
vn 0.2675 -0.6749 -0.6877
vn 0.1595 -0.6426 -0.7494
vn 0.0696 -0.6083 -0.7906
vn -0.0000 -0.5773 -0.8166
vn -0.6676 -0.0531 -0.7426
vn -0.5866 -0.0406 -0.8088
vn -0.5743 -0.1606 -0.8028
vn -0.6688 -0.1572 -0.7266
vn -0.4528 -0.0406 -0.8907
vn -0.4374 -0.1606 -0.8848
vn -0.3078 -0.0399 -0.9506
vn -0.2934 -0.1581 -0.9428
vn -0.1557 -0.0391 -0.9870
vn -0.1472 -0.1553 -0.9768
vn -0.0000 -0.0388 -0.9992
vn -0.0005 -0.1541 -0.9881
vn -0.5464 -0.3154 -0.7759
vn -0.6427 -0.3097 -0.7007
vn -0.4102 -0.3141 -0.8562
vn -0.2713 -0.3075 -0.9120
vn -0.1349 -0.3005 -0.9442
vn -0.0003 -0.2973 -0.9548
vn -0.5055 -0.4589 -0.7307
vn -0.6009 -0.4543 -0.6577
vn -0.3732 -0.4528 -0.8098
vn -0.2437 -0.4387 -0.8650
vn -0.1206 -0.4245 -0.8974
vn -0.0000 -0.4173 -0.9088
vn -0.4514 -0.5870 -0.6721
vn -0.5437 -0.5876 -0.5992
vn -0.3259 -0.5727 -0.7522
vn -0.2086 -0.5495 -0.8090
vn -0.1039 -0.5244 -0.8451
vn 0.0001 -0.5098 -0.8603
vn 0.6676 -0.0531 -0.7427
vn 0.6689 -0.1572 -0.7265
vn 0.5749 -0.1617 -0.8021
vn 0.5865 -0.0409 -0.8089
vn 0.6430 -0.3098 -0.7004
vn 0.5476 -0.3165 -0.7746
vn 0.6011 -0.4543 -0.6575
vn 0.5064 -0.4590 -0.7300
vn 0.5438 -0.5877 -0.5991
vn 0.4521 -0.5865 -0.6720
vn 0.4382 -0.1621 -0.8841
vn 0.4529 -0.0411 -0.8906
vn 0.4112 -0.3155 -0.8552
vn 0.3743 -0.4530 -0.8091
vn 0.3271 -0.5722 -0.7521
vn 0.2935 -0.1593 -0.9426
vn 0.3080 -0.0403 -0.9505
vn 0.2713 -0.3089 -0.9116
vn 0.2440 -0.4393 -0.8646
vn 0.2090 -0.5492 -0.8091
vn 0.1465 -0.1560 -0.9768
vn 0.1560 -0.0395 -0.9870
vn 0.1343 -0.3011 -0.9441
vn 0.1205 -0.4246 -0.8973
vn 0.1038 -0.5241 -0.8453
vn -0.0000 0.9972 -0.0751
vn 0.0823 0.9867 -0.1399
vn 0.0007 0.9736 -0.2281
vn -0.0822 0.9867 -0.1402
vn 0.1902 0.9500 -0.2478
vn 0.1100 0.9350 -0.3372
vn 0.2933 0.8898 -0.3496
vn 0.2128 0.8742 -0.4364
vn 0.3878 0.8082 -0.4432
vn 0.3051 0.7948 -0.5246
vn 0.4722 0.7065 -0.5271
vn 0.3849 0.6988 -0.6030
vn -0.1083 0.9350 -0.3376
vn -0.1898 0.9500 -0.2480
vn 0.0010 0.8955 -0.4450
vn 0.1027 0.8368 -0.5377
vn 0.1920 0.7630 -0.6173
vn 0.2669 0.6753 -0.6875
vn -0.2120 0.8740 -0.4373
vn -0.2929 0.8898 -0.3499
vn -0.1018 0.8365 -0.5385
vn 0.0004 0.7839 -0.6209
vn 0.0883 0.7198 -0.6885
vn 0.1593 0.6427 -0.7494
vn -0.3046 0.7945 -0.5253
vn -0.3879 0.8080 -0.4434
vn -0.1919 0.7624 -0.6180
vn -0.0881 0.7196 -0.6888
vn -0.0000 0.6711 -0.7414
vn 0.0697 0.6083 -0.7906
vn -0.3852 0.6985 -0.6031
vn -0.4720 0.7067 -0.5270
vn -0.2675 0.6749 -0.6877
vn -0.1595 0.6426 -0.7494
vn -0.0696 0.6083 -0.7906
vn -0.0000 0.5773 -0.8165
vn 0.6676 0.0531 -0.7426
vn 0.5866 0.0406 -0.8088
vn 0.5743 0.1606 -0.8027
vn 0.6688 0.1572 -0.7266
vn 0.4528 0.0406 -0.8907
vn 0.4374 0.1606 -0.8848
vn 0.3078 0.0399 -0.9506
vn 0.2934 0.1581 -0.9428
vn 0.1561 0.0391 -0.9870
vn 0.1472 0.1553 -0.9768
vn -0.0000 0.0388 -0.9992
vn 0.0005 0.1541 -0.9881
vn 0.5466 0.3154 -0.7757
vn 0.6427 0.3096 -0.7008
vn 0.4102 0.3141 -0.8562
vn 0.2713 0.3075 -0.9120
vn 0.1349 0.3005 -0.9442
vn 0.0004 0.2972 -0.9548
vn 0.5054 0.4589 -0.7308
vn 0.6008 0.4543 -0.6578
vn 0.3731 0.4527 -0.8098
vn 0.2438 0.4386 -0.8650
vn 0.1206 0.4245 -0.8974
vn 0.0002 0.4173 -0.9088
vn 0.4514 0.5870 -0.6721
vn 0.5436 0.5877 -0.5992
vn 0.3260 0.5726 -0.7523
vn 0.2085 0.5494 -0.8091
vn 0.1037 0.5241 -0.8453
vn 0.0001 0.5099 -0.8602
vn -0.6676 0.0531 -0.7426
vn -0.6689 0.1572 -0.7265
vn -0.5749 0.1617 -0.8021
vn -0.5865 0.0409 -0.8089
vn -0.6430 0.3096 -0.7005
vn -0.5476 0.3163 -0.7747
vn -0.6011 0.4543 -0.6575
vn -0.5063 0.4590 -0.7301
vn -0.5437 0.5878 -0.5991
vn -0.4520 0.5867 -0.6719
vn -0.4379 0.1621 -0.8843
vn -0.4529 0.0411 -0.8906
vn -0.4112 0.3155 -0.8552
vn -0.3742 0.4530 -0.8092
vn -0.3270 0.5722 -0.7521
vn -0.2935 0.1593 -0.9426
vn -0.3080 0.0403 -0.9505
vn -0.2714 0.3089 -0.9116
vn -0.2441 0.4393 -0.8645
vn -0.2091 0.5493 -0.8091
vn -0.1465 0.1560 -0.9768
vn -0.1557 0.0392 -0.9870
vn -0.1343 0.3013 -0.9440
vn -0.1204 0.4246 -0.8973
vn -0.1038 0.5243 -0.8452
vn -0.0000 -1.0000 -0.0000
vt 0.376667 0.751667
vt 0.623333 0.751667
vt 0.623333 0.998333
vt 0.376667 0.998333
vt 0.376667 0.501667
vt 0.623333 0.501667
vt 0.623333 0.748333
vt 0.376667 0.748333
vt 0.626667 0.501667
vt 0.873333 0.501667
vt 0.873333 0.748333
vt 0.626667 0.748333
vt 0.376667 0.001667
vt 0.623333 0.001667
vt 0.623333 0.248333
vt 0.376667 0.248333
vt 0.376667 0.251667
vt 0.623333 0.251667
vt 0.623333 0.498333
vt 0.376667 0.498333
vt 0.126667 0.748333
vt 0.126667 0.748594
vt 0.126400 0.748602
vt 0.126406 0.748333
vt 0.126667 0.748848
vt 0.126399 0.748863
vt 0.126667 0.749090
vt 0.126400 0.749102
vt 0.126667 0.749313
vt 0.126401 0.749313
vt 0.126667 0.750000
vt 0.126402 0.750000
vt 0.126139 0.748604
vt 0.126152 0.748333
vt 0.126138 0.748865
vt 0.126146 0.749094
vt 0.126155 0.749290
vt 0.126159 0.750000
vt 0.125898 0.748603
vt 0.125910 0.748333
vt 0.125906 0.748857
vt 0.125927 0.749074
vt 0.125948 0.749252
vt 0.125959 0.750000
vt 0.125686 0.748600
vt 0.125687 0.748333
vt 0.125710 0.748847
vt 0.125748 0.749052
vt 0.125785 0.749215
vt 0.125806 0.750000
vt 0.125000 0.748598
vt 0.125000 0.748333
vt 0.125000 0.748841
vt 0.125000 0.749041
vt 0.125000 0.749194
vt 0.125704 0.750000
vt 0.376667 0.998594
vt 0.376401 0.998602
vt 0.376406 0.998333
vt 0.376667 0.998848
vt 0.376399 0.998863
vt 0.376667 0.999090
vt 0.376400 0.999102
vt 0.376667 0.999313
vt 0.376401 0.999313
vt 0.376667 1.000000
vt 0.376402 1.000000
vt 0.376139 0.998604
vt 0.376152 0.998333
vt 0.376138 0.998865
vt 0.376146 0.999094
vt 0.376155 0.999290
vt 0.376159 1.000000
vt 0.375898 0.998603
vt 0.375910 0.998333
vt 0.375906 0.998857
vt 0.375927 0.999074
vt 0.375948 0.999252
vt 0.375959 1.000000
vt 0.375686 0.998600
vt 0.375687 0.998333
vt 0.375710 0.998847
vt 0.375748 0.999052
vt 0.375785 0.999215
vt 0.375806 1.000000
vt 0.375000 0.998598
vt 0.375000 0.998333
vt 0.375000 0.998841
vt 0.375000 0.999041
vt 0.375000 0.999194
vt 0.375704 1.000000
vt 0.376406 0.001667
vt 0.376398 0.001400
vt 0.376667 0.001406
vt 0.376152 0.001667
vt 0.376137 0.001399
vt 0.375910 0.001667
vt 0.375899 0.001400
vt 0.375687 0.001667
vt 0.375688 0.001401
vt 0.375000 0.001667
vt 0.375000 0.001402
vt 0.376396 0.001139
vt 0.376667 0.001152
vt 0.376135 0.001138
vt 0.375906 0.001146
vt 0.375710 0.001155
vt 0.375000 0.001160
vt 0.376397 0.000898
vt 0.376667 0.000910
vt 0.376143 0.000906
vt 0.375926 0.000927
vt 0.375748 0.000948
vt 0.375000 0.000959
vt 0.376400 0.000686
vt 0.376667 0.000687
vt 0.376153 0.000710
vt 0.375948 0.000748
vt 0.375785 0.000785
vt 0.375000 0.000806
vt 0.376402 0.000000
vt 0.376667 0.000000
vt 0.376160 0.000000
vt 0.375959 0.000000
vt 0.375806 0.000000
vt 0.375000 0.000704
vt 0.623594 0.998333
vt 0.623602 0.998600
vt 0.623333 0.998594
vt 0.623848 0.998333
vt 0.623863 0.998601
vt 0.624090 0.998333
vt 0.624102 0.998600
vt 0.624313 0.998333
vt 0.624313 0.998599
vt 0.625000 0.998333
vt 0.625000 0.998598
vt 0.623604 0.998861
vt 0.623333 0.998848
vt 0.623865 0.998862
vt 0.624094 0.998854
vt 0.624290 0.998845
vt 0.625000 0.998841
vt 0.623603 0.999102
vt 0.623333 0.999090
vt 0.623857 0.999094
vt 0.624074 0.999073
vt 0.624252 0.999052
vt 0.625000 0.999041
vt 0.623600 0.999314
vt 0.623333 0.999313
vt 0.623847 0.999290
vt 0.624052 0.999252
vt 0.624215 0.999215
vt 0.625000 0.999194
vt 0.623598 1.000000
vt 0.623333 1.000000
vt 0.623841 1.000000
vt 0.624041 1.000000
vt 0.624194 1.000000
vt 0.625000 0.999296
vt 0.873594 0.748333
vt 0.873602 0.748600
vt 0.873333 0.748594
vt 0.873848 0.748333
vt 0.873863 0.748601
vt 0.874090 0.748333
vt 0.874102 0.748600
vt 0.874313 0.748333
vt 0.874313 0.748599
vt 0.875000 0.748333
vt 0.875000 0.748598
vt 0.873604 0.748861
vt 0.873333 0.748848
vt 0.873865 0.748862
vt 0.874094 0.748854
vt 0.874290 0.748845
vt 0.875000 0.748841
vt 0.873603 0.749102
vt 0.873333 0.749090
vt 0.873857 0.749094
vt 0.874074 0.749073
vt 0.874252 0.749052
vt 0.875000 0.749041
vt 0.873600 0.749314
vt 0.873333 0.749313
vt 0.873847 0.749290
vt 0.874052 0.749252
vt 0.874215 0.749215
vt 0.875000 0.749194
vt 0.873598 0.750000
vt 0.873333 0.750000
vt 0.873840 0.750000
vt 0.874041 0.750000
vt 0.874194 0.750000
vt 0.875000 0.749296
vt 0.623333 0.001406
vt 0.623600 0.001398
vt 0.623594 0.001667
vt 0.623333 0.001152
vt 0.623601 0.001137
vt 0.623333 0.000910
vt 0.623601 0.000898
vt 0.623333 0.000687
vt 0.623599 0.000687
vt 0.623333 0.000000
vt 0.623598 0.000000
vt 0.623861 0.001396
vt 0.623848 0.001667
vt 0.623862 0.001135
vt 0.623854 0.000906
vt 0.623845 0.000710
vt 0.623841 0.000000
vt 0.624102 0.001397
vt 0.624090 0.001667
vt 0.624094 0.001143
vt 0.624073 0.000926
vt 0.624052 0.000748
vt 0.624041 0.000000
vt 0.624314 0.001400
vt 0.624313 0.001667
vt 0.624290 0.001153
vt 0.624252 0.000948
vt 0.624215 0.000785
vt 0.624194 0.000000
vt 0.625000 0.001402
vt 0.625000 0.001667
vt 0.625000 0.001159
vt 0.625000 0.000959
vt 0.625000 0.000806
vt 0.624296 0.000000
vt 0.126667 0.501667
vt 0.126406 0.501667
vt 0.126398 0.501400
vt 0.126667 0.501406
vt 0.126152 0.501667
vt 0.126137 0.501399
vt 0.125910 0.501667
vt 0.125898 0.501400
vt 0.125687 0.501667
vt 0.125687 0.501401
vt 0.125000 0.501667
vt 0.125000 0.501402
vt 0.126396 0.501139
vt 0.126667 0.501152
vt 0.126135 0.501138
vt 0.125906 0.501146
vt 0.125710 0.501155
vt 0.125000 0.501159
vt 0.126397 0.500898
vt 0.126667 0.500910
vt 0.126143 0.500906
vt 0.125926 0.500927
vt 0.125748 0.500948
vt 0.125000 0.500959
vt 0.126400 0.500686
vt 0.126667 0.500687
vt 0.126153 0.500710
vt 0.125948 0.500748
vt 0.125785 0.500785
vt 0.125000 0.500806
vt 0.126402 0.500000
vt 0.126667 0.500000
vt 0.126159 0.500000
vt 0.125959 0.500000
vt 0.125806 0.500000
vt 0.125000 0.500704
vt 0.376667 0.248594
vt 0.376401 0.248602
vt 0.376406 0.248333
vt 0.376667 0.248848
vt 0.376399 0.248863
vt 0.376667 0.249090
vt 0.376400 0.249102
vt 0.376667 0.249313
vt 0.376401 0.249313
vt 0.376667 0.250000
vt 0.376402 0.250000
vt 0.376139 0.248604
vt 0.376152 0.248333
vt 0.376138 0.248865
vt 0.376146 0.249094
vt 0.376155 0.249290
vt 0.376159 0.250000
vt 0.375898 0.248603
vt 0.375910 0.248333
vt 0.375906 0.248857
vt 0.375927 0.249074
vt 0.375948 0.249252
vt 0.375959 0.250000
vt 0.375686 0.248600
vt 0.375687 0.248333
vt 0.375710 0.248847
vt 0.375748 0.249052
vt 0.375785 0.249215
vt 0.375806 0.250000
vt 0.375000 0.248598
vt 0.375000 0.248333
vt 0.375000 0.248840
vt 0.375000 0.249041
vt 0.375000 0.249194
vt 0.375704 0.250000
vt 0.376406 0.251667
vt 0.376398 0.251401
vt 0.376667 0.251406
vt 0.376152 0.251667
vt 0.376137 0.251399
vt 0.375910 0.251667
vt 0.375899 0.251400
vt 0.375687 0.251667
vt 0.375688 0.251401
vt 0.375000 0.251667
vt 0.375000 0.251402
vt 0.376396 0.251139
vt 0.376667 0.251152
vt 0.376135 0.251138
vt 0.375906 0.251146
vt 0.375710 0.251155
vt 0.375000 0.251159
vt 0.376397 0.250898
vt 0.376667 0.250910
vt 0.376143 0.250906
vt 0.375926 0.250927
vt 0.375748 0.250948
vt 0.375000 0.250959
vt 0.376400 0.250686
vt 0.376667 0.250687
vt 0.376153 0.250710
vt 0.375948 0.250748
vt 0.375785 0.250785
vt 0.375000 0.250806
vt 0.376160 0.250000
vt 0.375000 0.250704
vt 0.873333 0.501406
vt 0.873600 0.501398
vt 0.873594 0.501667
vt 0.873333 0.501152
vt 0.873601 0.501137
vt 0.873333 0.500910
vt 0.873601 0.500898
vt 0.873333 0.500687
vt 0.873599 0.500687
vt 0.873333 0.500000
vt 0.873598 0.500000
vt 0.873861 0.501396
vt 0.873848 0.501667
vt 0.873862 0.501135
vt 0.873854 0.500906
vt 0.873845 0.500710
vt 0.873840 0.500000
vt 0.874102 0.501397
vt 0.874090 0.501667
vt 0.874094 0.501143
vt 0.874073 0.500926
vt 0.874052 0.500748
vt 0.874041 0.500000
vt 0.874314 0.501400
vt 0.874313 0.501667
vt 0.874290 0.501153
vt 0.874252 0.500948
vt 0.874215 0.500785
vt 0.874194 0.500000
vt 0.875000 0.501402
vt 0.875000 0.501667
vt 0.875000 0.501159
vt 0.875000 0.500959
vt 0.875000 0.500806
vt 0.874296 0.500000
vt 0.623333 0.251406
vt 0.623600 0.251398
vt 0.623594 0.251667
vt 0.623333 0.251152
vt 0.623601 0.251137
vt 0.623333 0.250910
vt 0.623601 0.250899
vt 0.623333 0.250687
vt 0.623599 0.250687
vt 0.623333 0.250000
vt 0.623598 0.250000
vt 0.623861 0.251396
vt 0.623848 0.251667
vt 0.623862 0.251135
vt 0.623854 0.250906
vt 0.623845 0.250710
vt 0.623841 0.250000
vt 0.624102 0.251397
vt 0.624090 0.251667
vt 0.624094 0.251143
vt 0.624073 0.250926
vt 0.624052 0.250748
vt 0.624041 0.250000
vt 0.624314 0.251400
vt 0.624313 0.251667
vt 0.624290 0.251153
vt 0.624252 0.250948
vt 0.624215 0.250785
vt 0.624194 0.250000
vt 0.625000 0.251402
vt 0.625000 0.251667
vt 0.625000 0.251159
vt 0.625000 0.250959
vt 0.625000 0.250806
vt 0.624296 0.250000
vt 0.623594 0.248333
vt 0.623602 0.248600
vt 0.623333 0.248594
vt 0.623848 0.248333
vt 0.623863 0.248601
vt 0.624090 0.248333
vt 0.624102 0.248600
vt 0.624313 0.248333
vt 0.624313 0.248599
vt 0.625000 0.248333
vt 0.625000 0.248598
vt 0.623604 0.248861
vt 0.623333 0.248848
vt 0.623865 0.248862
vt 0.624094 0.248854
vt 0.624290 0.248845
vt 0.625000 0.248840
vt 0.623603 0.249102
vt 0.623333 0.249090
vt 0.623857 0.249094
vt 0.624074 0.249073
vt 0.624252 0.249052
vt 0.625000 0.249041
vt 0.623600 0.249314
vt 0.623333 0.249313
vt 0.623847 0.249290
vt 0.624052 0.249252
vt 0.624215 0.249215
vt 0.625000 0.249194
vt 0.625000 0.249296
vt 0.373333 0.748333
vt 0.373594 0.748333
vt 0.373602 0.748600
vt 0.373333 0.748594
vt 0.373848 0.748333
vt 0.373863 0.748601
vt 0.374090 0.748333
vt 0.374102 0.748600
vt 0.374313 0.748333
vt 0.374313 0.748599
vt 0.375000 0.748333
vt 0.375000 0.748598
vt 0.373604 0.748861
vt 0.373333 0.748848
vt 0.373865 0.748862
vt 0.374094 0.748854
vt 0.374290 0.748845
vt 0.375000 0.748841
vt 0.373603 0.749102
vt 0.373333 0.749090
vt 0.373857 0.749094
vt 0.374074 0.749073
vt 0.374252 0.749052
vt 0.375000 0.749041
vt 0.373600 0.749314
vt 0.373333 0.749313
vt 0.373847 0.749290
vt 0.374052 0.749252
vt 0.374215 0.749215
vt 0.375000 0.749194
vt 0.373598 0.750000
vt 0.373333 0.750000
vt 0.373841 0.750000
vt 0.374041 0.750000
vt 0.374194 0.750000
vt 0.375235 0.750000
vt 0.376667 0.748594
vt 0.376401 0.748602
vt 0.376406 0.748333
vt 0.376667 0.748848
vt 0.376399 0.748863
vt 0.376667 0.749090
vt 0.376400 0.749102
vt 0.376667 0.749313
vt 0.376401 0.749313
vt 0.376667 0.750000
vt 0.376402 0.750000
vt 0.376139 0.748604
vt 0.376152 0.748333
vt 0.376138 0.748865
vt 0.376146 0.749094
vt 0.376155 0.749290
vt 0.376160 0.750000
vt 0.375898 0.748603
vt 0.375910 0.748333
vt 0.375906 0.748857
vt 0.375927 0.749074
vt 0.375948 0.749252
vt 0.375959 0.750000
vt 0.375686 0.748600
vt 0.375687 0.748333
vt 0.375710 0.748847
vt 0.375748 0.749052
vt 0.375785 0.749215
vt 0.375806 0.750000
vt 0.376406 0.751667
vt 0.376398 0.751400
vt 0.376667 0.751406
vt 0.376152 0.751667
vt 0.376137 0.751399
vt 0.375910 0.751667
vt 0.375899 0.751400
vt 0.375687 0.751667
vt 0.375688 0.751401
vt 0.375000 0.751667
vt 0.375000 0.751402
vt 0.376396 0.751139
vt 0.376667 0.751152
vt 0.376135 0.751138
vt 0.375906 0.751146
vt 0.375710 0.751155
vt 0.375000 0.751159
vt 0.376397 0.750898
vt 0.376667 0.750910
vt 0.376143 0.750906
vt 0.375926 0.750927
vt 0.375748 0.750948
vt 0.375000 0.750959
vt 0.376400 0.750686
vt 0.376667 0.750687
vt 0.376153 0.750710
vt 0.375948 0.750748
vt 0.375785 0.750785
vt 0.375000 0.750806
vt 0.626667 0.748594
vt 0.626400 0.748602
vt 0.626406 0.748333
vt 0.626667 0.748848
vt 0.626399 0.748863
vt 0.626667 0.749090
vt 0.626400 0.749102
vt 0.626667 0.749313
vt 0.626401 0.749313
vt 0.626667 0.750000
vt 0.626402 0.750000
vt 0.626139 0.748604
vt 0.626152 0.748333
vt 0.626138 0.748865
vt 0.626146 0.749094
vt 0.626155 0.749290
vt 0.626159 0.750000
vt 0.625898 0.748603
vt 0.625910 0.748333
vt 0.625906 0.748857
vt 0.625927 0.749074
vt 0.625948 0.749252
vt 0.625959 0.750000
vt 0.625686 0.748600
vt 0.625687 0.748333
vt 0.625710 0.748847
vt 0.625748 0.749052
vt 0.625785 0.749215
vt 0.625806 0.750000
vt 0.625000 0.748598
vt 0.625000 0.748333
vt 0.625000 0.748840
vt 0.625000 0.749041
vt 0.625000 0.749194
vt 0.625000 0.749765
vt 0.623333 0.751406
vt 0.623600 0.751398
vt 0.623594 0.751667
vt 0.623333 0.751152
vt 0.623601 0.751137
vt 0.623333 0.750910
vt 0.623601 0.750899
vt 0.623333 0.750687
vt 0.623599 0.750687
vt 0.623333 0.750000
vt 0.623598 0.750000
vt 0.623861 0.751396
vt 0.623848 0.751667
vt 0.623862 0.751135
vt 0.623854 0.750906
vt 0.623845 0.750710
vt 0.623841 0.750000
vt 0.624102 0.751397
vt 0.624090 0.751667
vt 0.624094 0.751143
vt 0.624073 0.750926
vt 0.624052 0.750748
vt 0.624041 0.750000
vt 0.624314 0.751400
vt 0.624313 0.751667
vt 0.624290 0.751153
vt 0.624252 0.750948
vt 0.624215 0.750785
vt 0.624194 0.750000
vt 0.625000 0.751402
vt 0.625000 0.751667
vt 0.625000 0.751160
vt 0.625000 0.750959
vt 0.625000 0.750806
vt 0.623594 0.748333
vt 0.623602 0.748600
vt 0.623333 0.748594
vt 0.623848 0.748333
vt 0.623863 0.748601
vt 0.624090 0.748333
vt 0.624102 0.748600
vt 0.624313 0.748333
vt 0.624313 0.748599
vt 0.623604 0.748861
vt 0.623333 0.748848
vt 0.623865 0.748862
vt 0.624094 0.748854
vt 0.624290 0.748845
vt 0.623603 0.749102
vt 0.623333 0.749090
vt 0.623857 0.749094
vt 0.624074 0.749073
vt 0.624252 0.749052
vt 0.623600 0.749314
vt 0.623333 0.749313
vt 0.623847 0.749290
vt 0.624052 0.749252
vt 0.624215 0.749215
vt 0.373333 0.501667
vt 0.373333 0.501406
vt 0.373599 0.501398
vt 0.373594 0.501667
vt 0.373333 0.501152
vt 0.373601 0.501137
vt 0.373333 0.500910
vt 0.373601 0.500898
vt 0.373333 0.500687
vt 0.373599 0.500687
vt 0.373333 0.500000
vt 0.373598 0.500000
vt 0.373861 0.501396
vt 0.373848 0.501667
vt 0.373862 0.501135
vt 0.373854 0.500906
vt 0.373845 0.500710
vt 0.373840 0.500000
vt 0.374102 0.501397
vt 0.374090 0.501667
vt 0.374094 0.501143
vt 0.374073 0.500926
vt 0.374052 0.500748
vt 0.374041 0.500000
vt 0.374314 0.501400
vt 0.374313 0.501667
vt 0.374290 0.501153
vt 0.374252 0.500948
vt 0.374215 0.500785
vt 0.374194 0.500000
vt 0.375000 0.501402
vt 0.375000 0.501667
vt 0.375000 0.501159
vt 0.375000 0.500959
vt 0.375000 0.500806
vt 0.375000 0.500235
vt 0.376667 0.498594
vt 0.376401 0.498602
vt 0.376406 0.498333
vt 0.376667 0.498848
vt 0.376399 0.498863
vt 0.376667 0.499090
vt 0.376400 0.499102
vt 0.376667 0.499313
vt 0.376401 0.499313
vt 0.376667 0.500000
vt 0.376402 0.500000
vt 0.376139 0.498604
vt 0.376152 0.498333
vt 0.376138 0.498865
vt 0.376146 0.499094
vt 0.376155 0.499290
vt 0.376159 0.500000
vt 0.375898 0.498603
vt 0.375910 0.498333
vt 0.375906 0.498857
vt 0.375927 0.499074
vt 0.375948 0.499252
vt 0.375959 0.500000
vt 0.375686 0.498600
vt 0.375687 0.498333
vt 0.375710 0.498847
vt 0.375748 0.499052
vt 0.375785 0.499215
vt 0.375806 0.500000
vt 0.375000 0.498598
vt 0.375000 0.498333
vt 0.375000 0.498840
vt 0.375000 0.499041
vt 0.375000 0.499194
vt 0.376406 0.501667
vt 0.376398 0.501400
vt 0.376667 0.501406
vt 0.376152 0.501667
vt 0.376137 0.501399
vt 0.375910 0.501667
vt 0.375899 0.501400
vt 0.375687 0.501667
vt 0.375688 0.501401
vt 0.376396 0.501139
vt 0.376667 0.501152
vt 0.376135 0.501138
vt 0.375906 0.501146
vt 0.375710 0.501155
vt 0.376397 0.500898
vt 0.376667 0.500910
vt 0.376143 0.500906
vt 0.375926 0.500927
vt 0.375748 0.500948
vt 0.376400 0.500686
vt 0.376667 0.500687
vt 0.376153 0.500710
vt 0.375948 0.500748
vt 0.375785 0.500785
vt 0.376160 0.500000
vt 0.626406 0.501667
vt 0.626398 0.501400
vt 0.626667 0.501406
vt 0.626152 0.501667
vt 0.626137 0.501399
vt 0.625910 0.501667
vt 0.625899 0.501400
vt 0.625687 0.501667
vt 0.625688 0.501401
vt 0.625000 0.501667
vt 0.625000 0.501402
vt 0.626396 0.501139
vt 0.626667 0.501152
vt 0.626135 0.501138
vt 0.625906 0.501146
vt 0.625710 0.501155
vt 0.625000 0.501159
vt 0.626397 0.500898
vt 0.626667 0.500910
vt 0.626143 0.500906
vt 0.625926 0.500927
vt 0.625748 0.500948
vt 0.625000 0.500959
vt 0.626400 0.500686
vt 0.626667 0.500687
vt 0.626153 0.500710
vt 0.625948 0.500748
vt 0.625785 0.500785
vt 0.625000 0.500806
vt 0.626402 0.500000
vt 0.626667 0.500000
vt 0.626159 0.500000
vt 0.625959 0.500000
vt 0.625806 0.500000
vt 0.624765 0.500000
vt 0.623333 0.501406
vt 0.623600 0.501398
vt 0.623594 0.501667
vt 0.623333 0.501152
vt 0.623601 0.501137
vt 0.623333 0.500910
vt 0.623601 0.500898
vt 0.623333 0.500687
vt 0.623599 0.500687
vt 0.623333 0.500000
vt 0.623598 0.500000
vt 0.623861 0.501396
vt 0.623848 0.501667
vt 0.623862 0.501135
vt 0.623854 0.500906
vt 0.623845 0.500710
vt 0.623841 0.500000
vt 0.624102 0.501397
vt 0.624090 0.501667
vt 0.624094 0.501143
vt 0.624073 0.500926
vt 0.624052 0.500748
vt 0.624041 0.500000
vt 0.624314 0.501400
vt 0.624313 0.501667
vt 0.624290 0.501153
vt 0.624252 0.500948
vt 0.624215 0.500785
vt 0.624194 0.500000
vt 0.625000 0.501160
vt 0.623594 0.498333
vt 0.623602 0.498600
vt 0.623333 0.498594
vt 0.623848 0.498333
vt 0.623863 0.498601
vt 0.624090 0.498333
vt 0.624102 0.498600
vt 0.624313 0.498333
vt 0.624313 0.498599
vt 0.625000 0.498333
vt 0.625000 0.498598
vt 0.623604 0.498861
vt 0.623333 0.498848
vt 0.623865 0.498862
vt 0.624094 0.498854
vt 0.624290 0.498845
vt 0.625000 0.498841
vt 0.623603 0.499102
vt 0.623333 0.499090
vt 0.623857 0.499094
vt 0.624074 0.499073
vt 0.624252 0.499052
vt 0.625000 0.499041
vt 0.623600 0.499314
vt 0.623333 0.499313
vt 0.623847 0.499290
vt 0.624052 0.499252
vt 0.624215 0.499215
vt 0.625000 0.499194
s 1
usemtl Glass
f 379/17/6 469/18/6 104/19/6 14/20/6
f 561/21/7 651/22/7 470/23/7 378/24/7
f 650/25/8 286/26/8 105/27/8 468/28/8
f 15/29/9 106/30/9 288/31/9 196/32/9
f 197/33/10 287/34/10 652/35/10 560/36/10
f 13/37/11 16/38/12 22/39/13 21/40/14
f 16/38/12 17/41/15 23/42/16 22/39/13
f 17/41/15 18/43/17 24/44/18 23/42/16
f 18/43/17 19/45/19 25/46/20 24/44/18
f 19/45/19 20/47/21 26/48/22 25/46/20
f 21/40/14 22/39/13 28/49/23 27/50/24
f 22/39/13 23/42/16 29/51/25 28/49/23
f 23/42/16 24/44/18 30/52/26 29/51/25
f 24/44/18 25/46/20 31/53/27 30/52/26
f 25/46/20 26/48/22 32/54/28 31/53/27
f 27/50/24 28/49/23 34/55/29 33/56/30
f 28/49/23 29/51/25 35/57/31 34/55/29
f 29/51/25 30/52/26 36/58/32 35/57/31
f 30/52/26 31/53/27 37/59/33 36/58/32
f 31/53/27 32/54/28 38/60/34 37/59/33
f 33/56/30 34/55/29 40/61/35 39/62/36
f 34/55/29 35/57/31 41/63/37 40/61/35
f 35/57/31 36/58/32 42/64/38 41/63/37
f 36/58/32 37/59/33 43/65/39 42/64/38
f 37/59/33 38/60/34 44/66/40 43/65/39
f 39/62/36 40/61/35 85/67/41 79/68/42
f 40/61/35 41/63/37 91/69/43 85/67/41
f 41/63/37 42/64/38 97/70/44 91/69/43
f 42/64/38 43/65/39 103/71/45 97/70/44
f 43/65/39 44/66/40 45/72/46 103/71/45
f 14/20/47 46/73/48 52/74/49 51/75/50
f 46/73/48 47/76/51 53/77/52 52/74/49
f 47/76/51 48/78/53 54/79/54 53/77/52
f 48/78/53 49/80/55 55/81/56 54/79/54
f 49/80/55 50/82/57 56/83/58 55/81/56
f 51/75/50 52/74/49 58/84/59 57/85/60
f 52/74/49 53/77/52 59/86/61 58/84/59
f 53/77/52 54/79/54 60/87/62 59/86/61
f 54/79/54 55/81/56 61/88/63 60/87/62
f 55/81/56 56/83/58 62/89/64 61/88/63
f 57/85/60 58/84/59 64/90/65 63/91/66
f 58/84/59 59/86/61 65/92/67 64/90/65
f 59/86/61 60/87/62 66/93/68 65/92/67
f 60/87/62 61/88/63 67/94/69 66/93/68
f 61/88/63 62/89/64 68/95/70 67/94/69
f 63/91/66 64/90/65 70/96/71 69/97/72
f 64/90/65 65/92/67 71/98/73 70/96/71
f 65/92/67 66/93/68 72/99/74 71/98/73
f 66/93/68 67/94/69 73/100/75 72/99/74
f 67/94/69 68/95/70 74/101/76 73/100/75
f 69/97/72 70/96/71 26/102/22 20/103/21
f 70/96/71 71/98/73 32/104/28 26/102/22
f 71/98/73 72/99/74 38/105/34 32/104/28
f 72/99/74 73/100/75 44/106/40 38/105/34
f 73/100/75 74/101/76 45/107/46 44/106/40
f 15/29/77 75/108/78 81/109/79 80/110/80
f 75/108/78 76/111/81 82/112/82 81/109/79
f 76/111/81 77/113/83 83/114/84 82/112/82
f 77/113/83 78/115/85 84/116/86 83/114/84
f 78/115/85 79/117/42 85/118/41 84/116/86
f 80/110/80 81/109/79 87/119/87 86/120/88
f 81/109/79 82/112/82 88/121/89 87/119/87
f 82/112/82 83/114/84 89/122/90 88/121/89
f 83/114/84 84/116/86 90/123/91 89/122/90
f 84/116/86 85/118/41 91/124/43 90/123/91
f 86/120/88 87/119/87 93/125/92 92/126/93
f 87/119/87 88/121/89 94/127/94 93/125/92
f 88/121/89 89/122/90 95/128/95 94/127/94
f 89/122/90 90/123/91 96/129/96 95/128/95
f 90/123/91 91/124/43 97/130/44 96/129/96
f 92/126/93 93/125/92 99/131/97 98/132/98
f 93/125/92 94/127/94 100/133/99 99/131/97
f 94/127/94 95/128/95 101/134/100 100/133/99
f 95/128/95 96/129/96 102/135/101 101/134/100
f 96/129/96 97/130/44 103/136/45 102/135/101
f 98/132/98 99/131/97 56/137/58 50/138/57
f 99/131/97 100/133/99 62/139/64 56/137/58
f 100/133/99 101/134/100 68/140/70 62/139/64
f 101/134/100 102/135/101 74/141/76 68/140/70
f 102/135/101 103/136/45 45/142/46 74/141/76
f 104/19/102 107/143/103 113/144/104 112/145/105
f 107/143/103 108/146/106 114/147/107 113/144/104
f 108/146/106 109/148/108 115/149/109 114/147/107
f 109/148/108 110/150/110 116/151/111 115/149/109
f 110/150/110 111/152/112 117/153/113 116/151/111
f 112/145/105 113/144/104 119/154/114 118/155/115
f 113/144/104 114/147/107 120/156/116 119/154/114
f 114/147/107 115/149/109 121/157/117 120/156/116
f 115/149/109 116/151/111 122/158/118 121/157/117
f 116/151/111 117/153/113 123/159/119 122/158/118
f 118/155/115 119/154/114 125/160/120 124/161/121
f 119/154/114 120/156/116 126/162/122 125/160/120
f 120/156/116 121/157/117 127/163/123 126/162/122
f 121/157/117 122/158/118 128/164/124 127/163/123
f 122/158/118 123/159/119 129/165/125 128/164/124
f 124/161/121 125/160/120 131/166/126 130/167/127
f 125/160/120 126/162/122 132/168/128 131/166/126
f 126/162/122 127/163/123 133/169/129 132/168/128
f 127/163/123 128/164/124 134/170/130 133/169/129
f 128/164/124 129/165/125 135/171/131 134/170/130
f 130/167/127 131/166/126 176/172/132 170/173/133
f 131/166/126 132/168/128 182/174/134 176/172/132
f 132/168/128 133/169/129 188/175/135 182/174/134
f 133/169/129 134/170/130 194/176/136 188/175/135
f 134/170/130 135/171/131 136/177/137 194/176/136
f 105/27/138 137/178/139 143/179/140 142/180/141
f 137/178/139 138/181/142 144/182/143 143/179/140
f 138/181/142 139/183/144 145/184/145 144/182/143
f 139/183/144 140/185/146 146/186/147 145/184/145
f 140/185/146 141/187/148 147/188/149 146/186/147
f 142/180/141 143/179/140 149/189/150 148/190/151
f 143/179/140 144/182/143 150/191/152 149/189/150
f 144/182/143 145/184/145 151/192/153 150/191/152
f 145/184/145 146/186/147 152/193/154 151/192/153
f 146/186/147 147/188/149 153/194/155 152/193/154
f 148/190/151 149/189/150 155/195/156 154/196/157
f 149/189/150 150/191/152 156/197/158 155/195/156
f 150/191/152 151/192/153 157/198/159 156/197/158
f 151/192/153 152/193/154 158/199/160 157/198/159
f 152/193/154 153/194/155 159/200/161 158/199/160
f 154/196/157 155/195/156 161/201/162 160/202/163
f 155/195/156 156/197/158 162/203/164 161/201/162
f 156/197/158 157/198/159 163/204/165 162/203/164
f 157/198/159 158/199/160 164/205/166 163/204/165
f 158/199/160 159/200/161 165/206/167 164/205/166
f 160/202/163 161/201/162 117/207/113 111/208/112
f 161/201/162 162/203/164 123/209/119 117/207/113
f 162/203/164 163/204/165 129/210/125 123/209/119
f 163/204/165 164/205/166 135/211/131 129/210/125
f 164/205/166 165/206/167 136/212/137 135/211/131
f 106/30/168 166/213/169 172/214/170 171/215/171
f 166/213/169 167/216/172 173/217/173 172/214/170
f 167/216/172 168/218/174 174/219/175 173/217/173
f 168/218/174 169/220/176 175/221/177 174/219/175
f 169/220/176 170/222/133 176/223/132 175/221/177
f 171/215/171 172/214/170 178/224/178 177/225/179
f 172/214/170 173/217/173 179/226/180 178/224/178
f 173/217/173 174/219/175 180/227/181 179/226/180
f 174/219/175 175/221/177 181/228/182 180/227/181
f 175/221/177 176/223/132 182/229/134 181/228/182
f 177/225/179 178/224/178 184/230/183 183/231/184
f 178/224/178 179/226/180 185/232/185 184/230/183
f 179/226/180 180/227/181 186/233/186 185/232/185
f 180/227/181 181/228/182 187/234/187 186/233/186
f 181/228/182 182/229/134 188/235/135 187/234/187
f 183/231/184 184/230/183 190/236/188 189/237/189
f 184/230/183 185/232/185 191/238/190 190/236/188
f 185/232/185 186/233/186 192/239/191 191/238/190
f 186/233/186 187/234/187 193/240/192 192/239/191
f 187/234/187 188/235/135 194/241/136 193/240/192
f 189/237/189 190/236/188 147/242/149 141/243/148
f 190/236/188 191/238/190 153/244/155 147/242/149
f 191/238/190 192/239/191 159/245/161 153/244/155
f 192/239/191 193/240/192 165/246/167 159/245/161
f 193/240/192 194/241/136 136/247/137 165/246/167
f 195/248/193 198/249/194 204/250/195 203/251/196
f 198/249/194 199/252/197 205/253/198 204/250/195
f 199/252/197 200/254/199 206/255/200 205/253/198
f 200/254/199 201/256/201 207/257/202 206/255/200
f 201/256/201 202/258/203 208/259/204 207/257/202
f 203/251/196 204/250/195 210/260/205 209/261/206
f 204/250/195 205/253/198 211/262/207 210/260/205
f 205/253/198 206/255/200 212/263/208 211/262/207
f 206/255/200 207/257/202 213/264/209 212/263/208
f 207/257/202 208/259/204 214/265/210 213/264/209
f 209/261/206 210/260/205 216/266/211 215/267/212
f 210/260/205 211/262/207 217/268/213 216/266/211
f 211/262/207 212/263/208 218/269/214 217/268/213
f 212/263/208 213/264/209 219/270/215 218/269/214
f 213/264/209 214/265/210 220/271/216 219/270/215
f 215/267/212 216/266/211 222/272/217 221/273/218
f 216/266/211 217/268/213 223/274/219 222/272/217
f 217/268/213 218/269/214 224/275/220 223/274/219
f 218/269/214 219/270/215 225/276/221 224/275/220
f 219/270/215 220/271/216 226/277/222 225/276/221
f 221/273/218 222/272/217 267/278/223 261/279/224
f 222/272/217 223/274/219 273/280/225 267/278/223
f 223/274/219 224/275/220 279/281/226 273/280/225
f 224/275/220 225/276/221 285/282/227 279/281/226
f 225/276/221 226/277/222 227/283/228 285/282/227
f 196/32/229 228/284/230 234/285/231 233/286/232
f 228/284/230 229/287/233 235/288/234 234/285/231
f 229/287/233 230/289/235 236/290/236 235/288/234
f 230/289/235 231/291/237 237/292/238 236/290/236
f 231/291/237 232/293/239 238/294/240 237/292/238
f 233/286/232 234/285/231 240/295/241 239/296/242
f 234/285/231 235/288/234 241/297/243 240/295/241
f 235/288/234 236/290/236 242/298/244 241/297/243
f 236/290/236 237/292/238 243/299/245 242/298/244
f 237/292/238 238/294/240 244/300/246 243/299/245
f 239/296/242 240/295/241 246/301/247 245/302/248
f 240/295/241 241/297/243 247/303/249 246/301/247
f 241/297/243 242/298/244 248/304/250 247/303/249
f 242/298/244 243/299/245 249/305/251 248/304/250
f 243/299/245 244/300/246 250/306/252 249/305/251
f 245/302/248 246/301/247 252/307/253 251/308/254
f 246/301/247 247/303/249 253/309/255 252/307/253
f 247/303/249 248/304/250 254/310/256 253/309/255
f 248/304/250 249/305/251 255/311/257 254/310/256
f 249/305/251 250/306/252 256/312/258 255/311/257
f 251/308/254 252/307/253 208/313/204 202/314/203
f 252/307/253 253/309/255 214/315/210 208/313/204
f 253/309/255 254/310/256 220/316/216 214/315/210
f 254/310/256 255/311/257 226/317/222 220/316/216
f 255/311/257 256/312/258 227/318/228 226/317/222
f 197/33/259 257/319/260 263/320/261 262/321/262
f 257/319/260 258/322/263 264/323/264 263/320/261
f 258/322/263 259/324/265 265/325/266 264/323/264
f 259/324/265 260/326/267 266/327/268 265/325/266
f 260/326/267 261/328/224 267/329/223 266/327/268
f 262/321/262 263/320/261 269/330/269 268/331/270
f 263/320/261 264/323/264 270/332/271 269/330/269
f 264/323/264 265/325/266 271/333/272 270/332/271
f 265/325/266 266/327/268 272/334/273 271/333/272
f 266/327/268 267/329/223 273/335/225 272/334/273
f 268/331/270 269/330/269 275/336/274 274/337/275
f 269/330/269 270/332/271 276/338/276 275/336/274
f 270/332/271 271/333/272 277/339/277 276/338/276
f 271/333/272 272/334/273 278/340/278 277/339/277
f 272/334/273 273/335/225 279/341/226 278/340/278
f 274/337/275 275/336/274 281/342/279 280/343/280
f 275/336/274 276/338/276 282/344/281 281/342/279
f 276/338/276 277/339/277 283/345/282 282/344/281
f 277/339/277 278/340/278 284/346/283 283/345/282
f 278/340/278 279/341/226 285/347/227 284/346/283
f 280/343/280 281/342/279 238/294/240 232/293/239
f 281/342/279 282/344/281 244/348/246 238/294/240
f 282/344/281 283/345/282 250/306/252 244/348/246
f 283/345/282 284/346/283 256/312/258 250/306/252
f 284/346/283 285/347/227 227/349/228 256/312/258
f 286/26/284 289/350/285 295/351/286 294/352/287
f 289/350/285 290/353/288 296/354/289 295/351/286
f 290/353/288 291/355/290 297/356/291 296/354/289
f 291/355/290 292/357/292 298/358/293 297/356/291
f 292/357/292 293/359/294 299/360/295 298/358/293
f 294/352/287 295/351/286 301/361/296 300/362/297
f 295/351/286 296/354/289 302/363/298 301/361/296
f 296/354/289 297/356/291 303/364/299 302/363/298
f 297/356/291 298/358/293 304/365/300 303/364/299
f 298/358/293 299/360/295 305/366/301 304/365/300
f 300/362/297 301/361/296 307/367/302 306/368/303
f 301/361/296 302/363/298 308/369/304 307/367/302
f 302/363/298 303/364/299 309/370/305 308/369/304
f 303/364/299 304/365/300 310/371/306 309/370/305
f 304/365/300 305/366/301 311/372/307 310/371/306
f 306/368/303 307/367/302 313/373/308 312/374/309
f 307/367/302 308/369/304 314/375/310 313/373/308
f 308/369/304 309/370/305 315/376/311 314/375/310
f 309/370/305 310/371/306 316/377/312 315/376/311
f 310/371/306 311/372/307 317/378/313 316/377/312
f 312/374/309 313/373/308 358/379/314 352/380/315
f 313/373/308 314/375/310 364/381/316 358/379/314
f 314/375/310 315/376/311 370/382/317 364/381/316
f 315/376/311 316/377/312 376/383/318 370/382/317
f 316/377/312 317/378/313 318/384/319 376/383/318
f 287/34/320 319/385/321 325/386/322 324/387/323
f 319/385/321 320/388/324 326/389/325 325/386/322
f 320/388/324 321/390/326 327/391/327 326/389/325
f 321/390/326 322/392/328 328/393/329 327/391/327
f 322/392/328 323/394/330 329/395/331 328/393/329
f 324/387/323 325/386/322 331/396/332 330/397/333
f 325/386/322 326/389/325 332/398/334 331/396/332
f 326/389/325 327/391/327 333/399/335 332/398/334
f 327/391/327 328/393/329 334/400/336 333/399/335
f 328/393/329 329/395/331 335/401/337 334/400/336
f 330/397/333 331/396/332 337/402/338 336/403/339
f 331/396/332 332/398/334 338/404/340 337/402/338
f 332/398/334 333/399/335 339/405/341 338/404/340
f 333/399/335 334/400/336 340/406/342 339/405/341
f 334/400/336 335/401/337 341/407/343 340/406/342
f 336/403/339 337/402/338 343/408/344 342/409/345
f 337/402/338 338/404/340 344/410/346 343/408/344
f 338/404/340 339/405/341 345/411/347 344/410/346
f 339/405/341 340/406/342 346/412/348 345/411/347
f 340/406/342 341/407/343 347/413/349 346/412/348
f 342/409/345 343/408/344 299/414/295 293/415/294
f 343/408/344 344/410/346 305/416/301 299/414/295
f 344/410/346 345/411/347 311/417/307 305/416/301
f 345/411/347 346/412/348 317/418/313 311/417/307
f 346/412/348 347/413/349 318/419/319 317/418/313
f 288/31/350 348/420/351 354/421/352 353/422/353
f 348/420/351 349/423/354 355/424/355 354/421/352
f 349/423/354 350/425/356 356/426/357 355/424/355
f 350/425/356 351/427/358 357/428/359 356/426/357
f 351/427/358 352/429/315 358/430/314 357/428/359
f 353/422/353 354/421/352 360/431/360 359/432/361
f 354/421/352 355/424/355 361/433/362 360/431/360
f 355/424/355 356/426/357 362/434/363 361/433/362
f 356/426/357 357/428/359 363/435/364 362/434/363
f 357/428/359 358/430/314 364/436/316 363/435/364
f 359/432/361 360/431/360 366/437/365 365/438/366
f 360/431/360 361/433/362 367/439/367 366/437/365
f 361/433/362 362/434/363 368/440/368 367/439/367
f 362/434/363 363/435/364 369/441/369 368/440/368
f 363/435/364 364/436/316 370/442/317 369/441/369
f 365/438/366 366/437/365 372/443/370 371/444/371
f 366/437/365 367/439/367 373/445/372 372/443/370
f 367/439/367 368/440/368 374/446/373 373/445/372
f 368/440/368 369/441/369 375/447/374 374/446/373
f 369/441/369 370/442/317 376/448/318 375/447/374
f 371/444/371 372/443/370 329/395/331 323/394/330
f 372/443/370 373/445/372 335/401/337 329/395/331
f 373/445/372 374/446/373 341/407/343 335/401/337
f 374/446/373 375/447/374 347/413/349 341/407/343
f 375/447/374 376/448/318 318/449/319 347/413/349
f 377/450/375 380/451/376 386/452/377 385/453/378
f 380/451/376 381/454/379 387/455/380 386/452/377
f 381/454/379 382/456/381 388/457/382 387/455/380
f 382/456/381 383/458/383 389/459/384 388/457/382
f 383/458/383 384/460/385 390/461/386 389/459/384
f 385/453/378 386/452/377 392/462/387 391/463/388
f 386/452/377 387/455/380 393/464/389 392/462/387
f 387/455/380 388/457/382 394/465/390 393/464/389
f 388/457/382 389/459/384 395/466/391 394/465/390
f 389/459/384 390/461/386 396/467/392 395/466/391
f 391/463/388 392/462/387 398/468/393 397/469/394
f 392/462/387 393/464/389 399/470/395 398/468/393
f 393/464/389 394/465/390 400/471/396 399/470/395
f 394/465/390 395/466/391 401/472/397 400/471/396
f 395/466/391 396/467/392 402/473/398 401/472/397
f 397/469/394 398/468/393 404/474/399 403/475/400
f 398/468/393 399/470/395 405/476/401 404/474/399
f 399/470/395 400/471/396 406/477/402 405/476/401
f 400/471/396 401/472/397 407/478/403 406/477/402
f 401/472/397 402/473/398 408/479/404 407/478/403
f 403/475/400 404/474/399 449/480/405 443/481/406
f 404/474/399 405/476/401 455/482/407 449/480/405
f 405/476/401 406/477/402 461/483/408 455/482/407
f 406/477/402 407/478/403 467/484/409 461/483/408
f 407/478/403 408/479/404 409/485/410 467/484/409
f 378/24/411 410/486/412 416/487/413 415/488/414
f 410/486/412 411/489/415 417/490/416 416/487/413
f 411/489/415 412/491/417 418/492/418 417/490/416
f 412/491/417 413/493/419 419/494/420 418/492/418
f 413/493/419 414/495/421 420/496/422 419/494/420
f 415/488/414 416/487/413 422/497/423 421/498/424
f 416/487/413 417/490/416 423/499/425 422/497/423
f 417/490/416 418/492/418 424/500/426 423/499/425
f 418/492/418 419/494/420 425/501/427 424/500/426
f 419/494/420 420/496/422 426/502/428 425/501/427
f 421/498/424 422/497/423 428/503/429 427/504/430
f 422/497/423 423/499/425 429/505/431 428/503/429
f 423/499/425 424/500/426 430/506/432 429/505/431
f 424/500/426 425/501/427 431/507/433 430/506/432
f 425/501/427 426/502/428 432/508/434 431/507/433
f 427/504/430 428/503/429 434/509/435 433/510/436
f 428/503/429 429/505/431 435/511/437 434/509/435
f 429/505/431 430/506/432 436/512/438 435/511/437
f 430/506/432 431/507/433 437/513/439 436/512/438
f 431/507/433 432/508/434 438/514/440 437/513/439
f 433/510/436 434/509/435 390/461/386 384/460/385
f 434/509/435 435/511/437 396/467/392 390/461/386
f 435/511/437 436/512/438 402/473/398 396/467/392
f 436/512/438 437/513/439 408/479/404 402/473/398
f 437/513/439 438/514/440 409/485/410 408/479/404
f 379/17/441 439/515/442 445/516/443 444/517/444
f 439/515/442 440/518/445 446/519/446 445/516/443
f 440/518/445 441/520/447 447/521/448 446/519/446
f 441/520/447 442/522/449 448/523/450 447/521/448
f 442/522/449 443/524/406 449/525/405 448/523/450
f 444/517/444 445/516/443 451/526/451 450/527/452
f 445/516/443 446/519/446 452/528/453 451/526/451
f 446/519/446 447/521/448 453/529/454 452/528/453
f 447/521/448 448/523/450 454/530/455 453/529/454
f 448/523/450 449/525/405 455/531/407 454/530/455
f 450/527/452 451/526/451 457/532/456 456/533/457
f 451/526/451 452/528/453 458/534/458 457/532/456
f 452/528/453 453/529/454 459/535/459 458/534/458
f 453/529/454 454/530/455 460/536/460 459/535/459
f 454/530/455 455/531/407 461/537/408 460/536/460
f 456/533/457 457/532/456 463/538/461 462/539/462
f 457/532/456 458/534/458 464/540/463 463/538/461
f 458/534/458 459/535/459 465/541/464 464/540/463
f 459/535/459 460/536/460 466/542/465 465/541/464
f 460/536/460 461/537/408 467/543/409 466/542/465
f 462/539/462 463/538/461 420/496/422 414/495/421
f 463/538/461 464/540/463 426/502/428 420/496/422
f 464/540/463 465/541/464 432/508/434 426/502/428
f 465/541/464 466/542/465 438/514/440 432/508/434
f 466/542/465 467/543/409 409/485/410 438/514/440
f 468/28/466 471/544/467 477/545/468 476/546/469
f 471/544/467 472/547/470 478/548/471 477/545/468
f 472/547/470 473/549/472 479/550/473 478/548/471
f 473/549/472 474/551/474 480/552/475 479/550/473
f 474/551/474 475/553/476 481/554/477 480/552/475
f 476/546/469 477/545/468 483/555/478 482/556/479
f 477/545/468 478/548/471 484/557/480 483/555/478
f 478/548/471 479/550/473 485/558/481 484/557/480
f 479/550/473 480/552/475 486/559/482 485/558/481
f 480/552/475 481/554/477 487/560/483 486/559/482
f 482/556/479 483/555/478 489/561/484 488/562/485
f 483/555/478 484/557/480 490/563/486 489/561/484
f 484/557/480 485/558/481 491/564/487 490/563/486
f 485/558/481 486/559/482 492/565/488 491/564/487
f 486/559/482 487/560/483 493/566/489 492/565/488
f 488/562/485 489/561/484 495/567/490 494/568/491
f 489/561/484 490/563/486 496/569/492 495/567/490
f 490/563/486 491/564/487 497/570/493 496/569/492
f 491/564/487 492/565/488 498/571/494 497/570/493
f 492/565/488 493/566/489 499/572/495 498/571/494
f 494/568/491 495/567/490 540/573/496 534/574/497
f 495/567/490 496/569/492 546/575/498 540/573/496
f 496/569/492 497/570/493 552/576/499 546/575/498
f 497/570/493 498/571/494 558/577/500 552/576/499
f 498/571/494 499/572/495 500/578/501 558/577/500
f 469/18/502 501/579/503 507/580/504 506/581/505
f 501/579/503 502/582/506 508/583/507 507/580/504
f 502/582/506 503/584/508 509/585/509 508/583/507
f 503/584/508 504/586/510 510/587/511 509/585/509
f 504/586/510 505/588/512 511/589/513 510/587/511
f 506/581/505 507/580/504 513/590/514 512/591/515
f 507/580/504 508/583/507 514/592/516 513/590/514
f 508/583/507 509/585/509 515/593/517 514/592/516
f 509/585/509 510/587/511 516/594/518 515/593/517
f 510/587/511 511/589/513 517/595/519 516/594/518
f 512/591/515 513/590/514 519/596/520 518/597/521
f 513/590/514 514/592/516 520/598/522 519/596/520
f 514/592/516 515/593/517 521/599/523 520/598/522
f 515/593/517 516/594/518 522/600/524 521/599/523
f 516/594/518 517/595/519 523/601/525 522/600/524
f 518/597/521 519/596/520 525/602/526 524/603/527
f 519/596/520 520/598/522 526/604/528 525/602/526
f 520/598/522 521/599/523 527/605/529 526/604/528
f 521/599/523 522/600/524 528/606/530 527/605/529
f 522/600/524 523/601/525 529/607/531 528/606/530
f 524/603/527 525/602/526 481/608/477 475/609/476
f 525/602/526 526/604/528 487/610/483 481/608/477
f 526/604/528 527/605/529 493/611/489 487/610/483
f 527/605/529 528/606/530 499/612/495 493/611/489
f 528/606/530 529/607/531 500/578/501 499/612/495
f 470/23/532 530/613/533 536/614/534 535/615/535
f 530/613/533 531/616/536 537/617/537 536/614/534
f 531/616/536 532/618/538 538/619/539 537/617/537
f 532/618/538 533/620/540 539/621/541 538/619/539
f 533/620/540 534/574/497 540/573/496 539/621/541
f 535/615/535 536/614/534 542/622/542 541/623/543
f 536/614/534 537/617/537 543/624/544 542/622/542
f 537/617/537 538/619/539 544/625/545 543/624/544
f 538/619/539 539/621/541 545/626/546 544/625/545
f 539/621/541 540/573/496 546/575/498 545/626/546
f 541/623/543 542/622/542 548/627/547 547/628/548
f 542/622/542 543/624/544 549/629/549 548/627/547
f 543/624/544 544/625/545 550/630/550 549/629/549
f 544/625/545 545/626/546 551/631/551 550/630/550
f 545/626/546 546/575/498 552/576/499 551/631/551
f 547/628/548 548/627/547 554/632/552 553/633/553
f 548/627/547 549/629/549 555/634/554 554/632/552
f 549/629/549 550/630/550 556/635/555 555/634/554
f 550/630/550 551/631/551 557/636/556 556/635/555
f 551/631/551 552/576/499 558/577/500 557/636/556
f 553/633/553 554/632/552 511/589/513 505/588/512
f 554/632/552 555/634/554 517/595/519 511/589/513
f 555/634/554 556/635/555 523/601/525 517/595/519
f 556/635/555 557/636/556 529/607/531 523/601/525
f 557/636/556 558/577/500 500/578/501 529/607/531
f 559/637/557 562/638/558 568/639/559 567/640/560
f 562/638/558 563/641/561 569/642/562 568/639/559
f 563/641/561 564/643/563 570/644/564 569/642/562
f 564/643/563 565/645/565 571/646/566 570/644/564
f 565/645/565 566/647/567 572/648/568 571/646/566
f 567/640/560 568/639/559 574/649/569 573/650/570
f 568/639/559 569/642/562 575/651/571 574/649/569
f 569/642/562 570/644/564 576/652/572 575/651/571
f 570/644/564 571/646/566 577/653/573 576/652/572
f 571/646/566 572/648/568 578/654/574 577/653/573
f 573/650/570 574/649/569 580/655/575 579/656/576
f 574/649/569 575/651/571 581/657/577 580/655/575
f 575/651/571 576/652/572 582/658/578 581/657/577
f 576/652/572 577/653/573 583/659/579 582/658/578
f 577/653/573 578/654/574 584/660/580 583/659/579
f 579/656/576 580/655/575 586/661/581 585/662/582
f 580/655/575 581/657/577 587/663/583 586/661/581
f 581/657/577 582/658/578 588/664/584 587/663/583
f 582/658/578 583/659/579 589/665/585 588/664/584
f 583/659/579 584/660/580 590/666/586 589/665/585
f 585/662/582 586/661/581 631/667/587 625/668/588
f 586/661/581 587/663/583 637/669/589 631/667/587
f 587/663/583 588/664/584 643/670/590 637/669/589
f 588/664/584 589/665/585 649/671/591 643/670/590
f 589/665/585 590/666/586 591/672/592 649/671/591
f 560/36/593 592/673/594 598/674/595 597/675/596
f 592/673/594 593/676/597 599/677/598 598/674/595
f 593/676/597 594/678/599 600/679/600 599/677/598
f 594/678/599 595/680/601 601/681/602 600/679/600
f 595/680/601 596/682/603 602/683/604 601/681/602
f 597/675/596 598/674/595 604/684/605 603/685/606
f 598/674/595 599/677/598 605/686/607 604/684/605
f 599/677/598 600/679/600 606/687/608 605/686/607
f 600/679/600 601/681/602 607/688/609 606/687/608
f 601/681/602 602/683/604 608/689/610 607/688/609
f 603/685/606 604/684/605 610/690/611 609/691/612
f 604/684/605 605/686/607 611/692/613 610/690/611
f 605/686/607 606/687/608 612/693/614 611/692/613
f 606/687/608 607/688/609 613/694/615 612/693/614
f 607/688/609 608/689/610 614/695/616 613/694/615
f 609/691/612 610/690/611 616/696/617 615/697/618
f 610/690/611 611/692/613 617/698/619 616/696/617
f 611/692/613 612/693/614 618/699/620 617/698/619
f 612/693/614 613/694/615 619/700/621 618/699/620
f 613/694/615 614/695/616 620/701/622 619/700/621
f 615/697/618 616/696/617 572/702/568 566/703/567
f 616/696/617 617/698/619 578/704/574 572/702/568
f 617/698/619 618/699/620 584/705/580 578/704/574
f 618/699/620 619/700/621 590/706/586 584/705/580
f 619/700/621 620/701/622 591/672/592 590/706/586
f 561/21/623 621/707/624 627/708/625 626/709/626
f 621/707/624 622/710/627 628/711/628 627/708/625
f 622/710/627 623/712/629 629/713/630 628/711/628
f 623/712/629 624/714/631 630/715/632 629/713/630
f 624/714/631 625/668/588 631/667/587 630/715/632
f 626/709/626 627/708/625 633/716/633 632/717/634
f 627/708/625 628/711/628 634/718/635 633/716/633
f 628/711/628 629/713/630 635/719/636 634/718/635
f 629/713/630 630/715/632 636/720/637 635/719/636
f 630/715/632 631/667/587 637/669/589 636/720/637
f 632/717/634 633/716/633 639/721/638 638/722/639
f 633/716/633 634/718/635 640/723/640 639/721/638
f 634/718/635 635/719/636 641/724/641 640/723/640
f 635/719/636 636/720/637 642/725/642 641/724/641
f 636/720/637 637/669/589 643/670/590 642/725/642
f 638/722/639 639/721/638 645/726/643 644/727/644
f 639/721/638 640/723/640 646/728/645 645/726/643
f 640/723/640 641/724/641 647/729/646 646/728/645
f 641/724/641 642/725/642 648/730/647 647/729/646
f 642/725/642 643/670/590 649/671/591 648/730/647
f 644/727/644 645/726/643 602/683/604 596/682/603
f 645/726/643 646/728/645 608/731/610 602/683/604
f 646/728/645 647/729/646 614/695/616 608/731/610
f 647/729/646 648/730/647 620/701/622 614/695/616
f 648/730/647 649/671/591 591/672/592 620/701/622
f 650/25/648 653/732/649 659/733/650 658/734/651
f 653/732/649 654/735/652 660/736/653 659/733/650
f 654/735/652 655/737/654 661/738/655 660/736/653
f 655/737/654 656/739/656 662/740/657 661/738/655
f 656/739/656 657/741/658 663/742/659 662/740/657
f 658/734/651 659/733/650 665/743/660 664/744/661
f 659/733/650 660/736/653 666/745/662 665/743/660
f 660/736/653 661/738/655 667/746/663 666/745/662
f 661/738/655 662/740/657 668/747/664 667/746/663
f 662/740/657 663/742/659 669/748/665 668/747/664
f 664/744/661 665/743/660 671/749/666 670/750/667
f 665/743/660 666/745/662 672/751/668 671/749/666
f 666/745/662 667/746/663 673/752/669 672/751/668
f 667/746/663 668/747/664 674/753/670 673/752/669
f 668/747/664 669/748/665 675/754/671 674/753/670
f 670/750/667 671/749/666 677/755/672 676/756/673
f 671/749/666 672/751/668 678/757/674 677/755/672
f 672/751/668 673/752/669 679/758/675 678/757/674
f 673/752/669 674/753/670 680/759/676 679/758/675
f 674/753/670 675/754/671 681/760/677 680/759/676
f 676/756/673 677/755/672 722/761/678 716/762/679
f 677/755/672 678/757/674 728/763/680 722/761/678
f 678/757/674 679/758/675 734/764/681 728/763/680
f 679/758/675 680/759/676 740/765/682 734/764/681
f 680/759/676 681/760/677 682/766/683 740/765/682
f 651/22/684 683/767/685 689/768/686 688/769/687
f 683/767/685 684/770/688 690/771/689 689/768/686
f 684/770/688 685/772/690 691/773/691 690/771/689
f 685/772/690 686/774/692 692/775/693 691/773/691
f 686/774/692 687/776/694 693/777/695 692/775/693
f 688/769/687 689/768/686 695/778/696 694/779/697
f 689/768/686 690/771/689 696/780/698 695/778/696
f 690/771/689 691/773/691 697/781/699 696/780/698
f 691/773/691 692/775/693 698/782/700 697/781/699
f 692/775/693 693/777/695 699/783/701 698/782/700
f 694/779/697 695/778/696 701/784/702 700/785/703
f 695/778/696 696/780/698 702/786/704 701/784/702
f 696/780/698 697/781/699 703/787/705 702/786/704
f 697/781/699 698/782/700 704/788/706 703/787/705
f 698/782/700 699/783/701 705/789/707 704/788/706
f 700/785/703 701/784/702 707/790/708 706/791/709
f 701/784/702 702/786/704 708/792/710 707/790/708
f 702/786/704 703/787/705 709/793/711 708/792/710
f 703/787/705 704/788/706 710/794/712 709/793/711
f 704/788/706 705/789/707 711/795/713 710/794/712
f 706/791/709 707/790/708 663/742/659 657/741/658
f 707/790/708 708/792/710 669/796/665 663/742/659
f 708/792/710 709/793/711 675/754/671 669/796/665
f 709/793/711 710/794/712 681/760/677 675/754/671
f 710/794/712 711/795/713 682/766/683 681/760/677
f 652/35/714 712/797/715 718/798/716 717/799/717
f 712/797/715 713/800/718 719/801/719 718/798/716
f 713/800/718 714/802/720 720/803/721 719/801/719
f 714/802/720 715/804/722 721/805/723 720/803/721
f 715/804/722 716/806/679 722/807/678 721/805/723
f 717/799/717 718/798/716 724/808/724 723/809/725
f 718/798/716 719/801/719 725/810/726 724/808/724
f 719/801/719 720/803/721 726/811/727 725/810/726
f 720/803/721 721/805/723 727/812/728 726/811/727
f 721/805/723 722/807/678 728/813/680 727/812/728
f 723/809/725 724/808/724 730/814/729 729/815/730
f 724/808/724 725/810/726 731/816/731 730/814/729
f 725/810/726 726/811/727 732/817/732 731/816/731
f 726/811/727 727/812/728 733/818/733 732/817/732
f 727/812/728 728/813/680 734/819/681 733/818/733
f 729/815/730 730/814/729 736/820/734 735/821/735
f 730/814/729 731/816/731 737/822/736 736/820/734
f 731/816/731 732/817/732 738/823/737 737/822/736
f 732/817/732 733/818/733 739/824/738 738/823/737
f 733/818/733 734/819/681 740/825/682 739/824/738
f 735/821/735 736/820/734 693/777/695 687/776/694
f 736/820/734 737/822/736 699/783/701 693/777/695
f 737/822/736 738/823/737 705/789/707 699/783/701
f 738/823/737 739/824/738 711/795/713 705/789/707
f 739/824/738 740/825/682 682/766/683 711/795/713
f 15/29/77 196/32/229 233/286/232 75/108/78
f 75/108/78 233/286/232 239/296/242 76/111/81
f 76/111/81 239/296/242 245/302/248 77/113/83
f 77/113/83 245/302/248 251/308/254 78/115/85
f 78/115/85 251/308/254 202/314/203 79/117/42
f 79/68/42 202/258/203 201/256/201 39/62/36
f 39/62/36 201/256/201 200/254/199 33/56/30
f 33/56/30 200/254/199 199/252/197 27/50/24
f 27/50/24 199/252/197 198/249/194 21/40/14
f 21/40/14 198/249/194 195/248/193 13/37/11
f 14/20/47 104/19/102 112/145/105 46/73/48
f 46/73/48 112/145/105 118/155/115 47/76/51
f 47/76/51 118/155/115 124/161/121 48/78/53
f 48/78/53 124/161/121 130/167/127 49/80/55
f 49/80/55 130/167/127 170/173/133 50/82/57
f 50/138/57 170/222/133 169/220/176 98/132/98
f 98/132/98 169/220/176 168/218/174 92/126/93
f 92/126/93 168/218/174 167/216/172 86/120/88
f 86/120/88 167/216/172 166/213/169 80/110/80
f 80/110/80 166/213/169 106/30/168 15/29/77
f 105/27/138 286/26/284 294/352/287 137/178/139
f 137/178/139 294/352/287 300/362/297 138/181/142
f 138/181/142 300/362/297 306/368/303 139/183/144
f 139/183/144 306/368/303 312/374/309 140/185/146
f 140/185/146 312/374/309 352/380/315 141/187/148
f 141/243/148 352/429/315 351/427/358 189/237/189
f 189/237/189 351/427/358 350/425/356 183/231/184
f 183/231/184 350/425/356 349/423/354 177/225/179
f 177/225/179 349/423/354 348/420/351 171/215/171
f 171/215/171 348/420/351 288/31/350 106/30/168
f 196/32/229 288/31/350 353/422/353 228/284/230
f 228/284/230 353/422/353 359/432/361 229/287/233
f 229/287/233 359/432/361 365/438/366 230/289/235
f 230/289/235 365/438/366 371/444/371 231/291/237
f 231/291/237 371/444/371 323/394/330 232/293/239
f 232/293/239 323/394/330 322/392/328 280/343/280
f 280/343/280 322/392/328 321/390/326 274/337/275
f 274/337/275 321/390/326 320/388/324 268/331/270
f 268/331/270 320/388/324 319/385/321 262/321/262
f 262/321/262 319/385/321 287/34/320 197/33/259
f 197/33/259 560/36/593 597/675/596 257/319/260
f 257/319/260 597/675/596 603/685/606 258/322/263
f 258/322/263 603/685/606 609/691/612 259/324/265
f 259/324/265 609/691/612 615/697/618 260/326/267
f 260/326/267 615/697/618 566/703/567 261/328/224
f 261/279/224 566/647/567 565/645/565 221/273/218
f 221/273/218 565/645/565 564/643/563 215/267/212
f 215/267/212 564/643/563 563/641/561 209/261/206
f 209/261/206 563/641/561 562/638/558 203/251/196
f 203/251/196 562/638/558 559/637/557 195/248/193
f 286/26/284 650/25/648 658/734/651 289/350/285
f 289/350/285 658/734/651 664/744/661 290/353/288
f 290/353/288 664/744/661 670/750/667 291/355/290
f 291/355/290 670/750/667 676/756/673 292/357/292
f 292/357/292 676/756/673 716/762/679 293/359/294
f 293/415/294 716/806/679 715/804/722 342/409/345
f 342/409/345 715/804/722 714/802/720 336/403/339
f 336/403/339 714/802/720 713/800/718 330/397/333
f 330/397/333 713/800/718 712/797/715 324/387/323
f 324/387/323 712/797/715 652/35/714 287/34/320
f 560/36/593 652/35/714 717/799/717 592/673/594
f 592/673/594 717/799/717 723/809/725 593/676/597
f 593/676/597 723/809/725 729/815/730 594/678/599
f 594/678/599 729/815/730 735/821/735 595/680/601
f 595/680/601 735/821/735 687/776/694 596/682/603
f 596/682/603 687/776/694 686/774/692 644/727/644
f 644/727/644 686/774/692 685/772/690 638/722/639
f 638/722/639 685/772/690 684/770/688 632/717/634
f 632/717/634 684/770/688 683/767/685 626/709/626
f 626/709/626 683/767/685 651/22/684 561/21/623
f 377/450/375 559/637/557 567/640/560 380/451/376
f 380/451/376 567/640/560 573/650/570 381/454/379
f 381/454/379 573/650/570 579/656/576 382/456/381
f 382/456/381 579/656/576 585/662/582 383/458/383
f 383/458/383 585/662/582 625/668/588 384/460/385
f 384/460/385 625/668/588 624/714/631 433/510/436
f 433/510/436 624/714/631 623/712/629 427/504/430
f 427/504/430 623/712/629 622/710/627 421/498/424
f 421/498/424 622/710/627 621/707/624 415/488/414
f 415/488/414 621/707/624 561/21/623 378/24/411
f 470/23/532 651/22/684 688/769/687 530/613/533
f 530/613/533 688/769/687 694/779/697 531/616/536
f 531/616/536 694/779/697 700/785/703 532/618/538
f 532/618/538 700/785/703 706/791/709 533/620/540
f 533/620/540 706/791/709 657/741/658 534/574/497
f 534/574/497 657/741/658 656/739/656 494/568/491
f 494/568/491 656/739/656 655/737/654 488/562/485
f 488/562/485 655/737/654 654/735/652 482/556/479
f 482/556/479 654/735/652 653/732/649 476/546/469
f 476/546/469 653/732/649 650/25/648 468/28/466
f 378/24/411 470/23/532 535/615/535 410/486/412
f 410/486/412 535/615/535 541/623/543 411/489/415
f 411/489/415 541/623/543 547/628/548 412/491/417
f 412/491/417 547/628/548 553/633/553 413/493/419
f 413/493/419 553/633/553 505/588/512 414/495/421
f 414/495/421 505/588/512 504/586/510 462/539/462
f 462/539/462 504/586/510 503/584/508 456/533/457
f 456/533/457 503/584/508 502/582/506 450/527/452
f 450/527/452 502/582/506 501/579/503 444/517/444
f 444/517/444 501/579/503 469/18/502 379/17/441
f 13/37/11 377/450/375 385/453/378 16/38/12
f 16/38/12 385/453/378 391/463/388 17/41/15
f 17/41/15 391/463/388 397/469/394 18/43/17
f 18/43/17 397/469/394 403/475/400 19/45/19
f 19/45/19 403/475/400 443/481/406 20/47/21
f 20/103/21 443/524/406 442/522/449 69/97/72
f 69/97/72 442/522/449 441/520/447 63/91/66
f 63/91/66 441/520/447 440/518/445 57/85/60
f 57/85/60 440/518/445 439/515/442 51/75/50
f 51/75/50 439/515/442 379/17/441 14/20/47
f 104/19/102 469/18/502 506/581/505 107/143/103
f 107/143/103 506/581/505 512/591/515 108/146/106
f 108/146/106 512/591/515 518/597/521 109/148/108
f 109/148/108 518/597/521 524/603/527 110/150/110
f 110/150/110 524/603/527 475/609/476 111/152/112
f 111/208/112 475/553/476 474/551/474 160/202/163
f 160/202/163 474/551/474 473/549/472 154/196/157
f 154/196/157 473/549/472 472/547/470 148/190/151
f 148/190/151 472/547/470 471/544/467 142/180/141
f 142/180/141 471/544/467 468/28/466 105/27/138
f 195/248/739 559/637/739 377/450/739 13/37/739
